<svg xmlns="http://www.w3.org/2000/svg" viewBox="0 0 714.35 783.16"><defs><style>.cls-1{fill:#ffa35f;}.cls-2{fill:#0f1d5b;}.cls-3,.cls-7,.cls-8{fill:none;}.cls-3,.cls-6,.cls-7{stroke:#23110c;}.cls-3,.cls-6,.cls-8{stroke-linecap:round;}.cls-3,.cls-6,.cls-7,.cls-8{stroke-miterlimit:10;stroke-width:0.5px;}.cls-4{fill:#231f20;}.cls-5{fill:#f8c844;}.cls-6{fill:#f4efeb;}.cls-8{stroke:#fff;}.cls-9{fill:#000233;}.cls-10{fill:#faccbc;}.cls-11{fill:#dca797;}</style></defs><g id="Layer_2" data-name="Layer 2"><g id="Layer_1-2" data-name="Layer 1"><path class="cls-1" d="M145,288.2a5.86,5.86,0,1,1-11.72.42,2.94,2.94,0,0,1,0-.42,5.86,5.86,0,1,1,11.72,0Z"/><path class="cls-2" d="M168,258c-9.21-2.64-15.7-3.56-18.62-8.24s-3-11.94,3.17-16.14,18.22-4.44,27.59,4.35l5.25-6.69c-4.9-3.95-11.25-8.45-21.89-8.45a29.37,29.37,0,0,0-17.53,5.7s-7.59,5.84-7.59,15.64A19,19,0,0,0,145.17,259,41.88,41.88,0,0,0,157,264.4c7.13,2.05,16.1,3.9,18.67,8.65s2.82,13.23-2.23,17-7.59,4.2-11.51,4.2A25.49,25.49,0,0,1,147,289h0a8,8,0,0,1-5.71,6.89c1.44,1.24,8.45,6.69,20.59,6.69a25,25,0,0,0,22.9-14.32c2.08-4.69,2.88-12.24.15-17.83S177.22,260.66,168,258Z"/><polygon class="cls-3" points="521.06 706.44 565.6 706.44 577.36 640.83 509.31 640.83 521.06 706.44"/><rect class="cls-3" x="563.83" y="655.12" width="8.39" height="8.39" transform="translate(1435.89 723.87) rotate(135)"/><rect class="cls-3" x="551.65" y="655.12" width="8.39" height="8.39" transform="translate(1415.1 732.48) rotate(135)"/><rect class="cls-3" x="539.48" y="655.12" width="8.39" height="8.39" transform="translate(1394.32 741.09) rotate(135)"/><rect class="cls-3" x="527.3" y="655.12" width="8.39" height="8.39" transform="translate(1373.53 749.7) rotate(135)"/><rect class="cls-3" x="515.12" y="655.12" width="8.39" height="8.39" transform="translate(1352.74 758.31) rotate(135)"/><path class="cls-1" d="M511.59,66.55s-53.43-2.75-71.53-40A1.77,1.77,0,0,1,441.94,24C450.38,25.5,475.13,32.63,511.59,66.55Z"/><path class="cls-4" d="M453.42,33.83c2.2,1.72,4.43,3.41,6.7,5s4.55,3.24,6.87,4.78c4.65,3.08,9.39,6,14.31,8.66s9.91,5.14,15,7.51c2.52,1.2,5.06,2.35,7.62,3.47s5.12,2.24,7.71,3.27c-2.64-.91-5.25-1.9-7.85-2.93s-5.17-2.15-7.73-3.28c-5.1-2.27-10.14-4.73-15.07-7.38a159.77,159.77,0,0,1-14.27-8.84c-2.29-1.61-4.55-3.26-6.77-5S455.54,35.65,453.42,33.83Z"/><path class="cls-1" d="M543.67,121.9s19-50-7.74-81.59a1.77,1.77,0,0,0-3.08.69C530.81,49.33,527.34,74.85,543.67,121.9Z"/><path class="cls-4" d="M537.19,55.47c.81,2.68,1.57,5.37,2.26,8.08s1.27,5.45,1.81,8.19a155.43,155.43,0,0,1,2.34,16.63c.43,5.58.65,11.18.67,16.77,0,2.8,0,5.59-.11,8.39s-.26,5.59-.49,8.37c.11-2.79.13-5.59.12-8.38s0-5.58-.09-8.37c-.14-5.58-.36-11.16-.85-16.72s-1.21-11.08-2.15-16.58c-.47-2.75-1-5.49-1.6-8.22S537.89,58.18,537.19,55.47Z"/><path class="cls-5" d="M571.43,213.72s-49.7-19.83-54.82-60.92a1.77,1.77,0,0,1,2.6-1.81C526.71,155.13,547.85,169.85,571.43,213.72Z"/><path class="cls-4" d="M526.91,164q2.3,3.51,4.72,6.92c1.61,2.29,3.26,4.54,5,6.74,3.41,4.42,6.93,8.75,10.75,12.81s7.72,8.06,11.73,11.94q3,2.91,6.1,5.74c2.05,1.9,4.12,3.77,6.25,5.58-2.2-1.72-4.36-3.5-6.49-5.31s-4.2-3.7-6.25-5.59q-6.16-5.7-11.89-11.85a157.21,157.21,0,0,1-10.66-13q-2.49-3.39-4.81-6.88C529.8,168.78,528.34,166.4,526.91,164Z"/><path class="cls-5" d="M552.93,312.46s-49.7-19.83-54.82-60.93a1.77,1.77,0,0,1,2.6-1.8C508.22,253.87,529.35,268.59,552.93,312.46Z"/><path class="cls-4" d="M508.42,262.73q2.28,3.51,4.71,6.92c1.61,2.28,3.26,4.54,5,6.74,3.41,4.42,6.93,8.75,10.75,12.81s7.72,8.06,11.73,11.94q3,2.91,6.1,5.73c2.05,1.9,4.12,3.77,6.25,5.59-2.2-1.72-4.36-3.5-6.49-5.31s-4.2-3.7-6.25-5.59q-6.16-5.71-11.89-11.85a157.21,157.21,0,0,1-10.66-13q-2.49-3.39-4.81-6.88C511.3,267.51,509.84,265.13,508.42,262.73Z"/><path class="cls-5" d="M538.27,365.89s-52.27-11.43-64-51.13a1.77,1.77,0,0,1,2.26-2.2C484.57,315.41,507.83,326.48,538.27,365.89Z"/><path class="cls-4" d="M486.22,324.12c1.88,2.06,3.81,4.09,5.78,6.06s4,3.94,6,5.84c4.09,3.79,8.28,7.49,12.71,10.87s8.93,6.68,13.53,9.85c2.3,1.59,4.61,3.14,7,4.66s4.68,3.05,7.07,4.49c-2.45-1.33-4.87-2.74-7.27-4.17s-4.74-3-7.08-4.5q-7-4.62-13.67-9.74a156.17,156.17,0,0,1-12.64-11.05q-3-2.93-5.87-6C489.85,328.37,488,326.26,486.22,324.12Z"/><path class="cls-5" d="M543.33,604.62s52.74-9.06,66.3-48.18a1.76,1.76,0,0,0-2.16-2.3C599.26,556.62,575.53,566.62,543.33,604.62Z"/><path class="cls-4" d="M597.22,565.24q-2.84,3.09-5.8,6T585.29,577a157.27,157.27,0,0,1-13.13,10.47c-4.58,3.22-9.29,6.25-14.09,9.12q-3.62,2.13-7.28,4.16c-2.46,1.33-4.95,2.62-7.46,3.85q3.69-2,7.27-4.17t7.17-4.34c4.73-3,9.42-6,14-9.23s8.93-6.68,13.18-10.29c2.13-1.8,4.21-3.66,6.26-5.56S595.25,567.22,597.22,565.24Z"/><path class="cls-5" d="M585.93,465.82s50-19,55.79-60a1.76,1.76,0,0,0-2.56-1.84C631.58,408,610.22,422.34,585.93,465.82Z"/><path class="cls-4" d="M631.24,416.82c-1.46,2.38-3,4.74-4.53,7.05s-3.22,4.58-4.92,6.8a154.21,154.21,0,0,1-10.86,12.8c-3.88,4-7.92,7.92-12.08,11.66q-3.14,2.79-6.34,5.49c-2.16,1.78-4.35,3.52-6.58,5.2,2.16-1.78,4.26-3.61,6.34-5.48s4.15-3.73,6.19-5.64c4.08-3.81,8.1-7.68,11.93-11.74s7.47-8.28,11-12.64q2.61-3.27,5.07-6.66C628.08,421.42,629.68,419.13,631.24,416.82Z"/><path class="cls-1" d="M579,493.08s53.44-2.69,71.57-39.92a1.77,1.77,0,0,0-1.87-2.55C640.29,452.1,615.53,459.2,579,493.08Z"/><path class="cls-4" d="M637.23,460.42q-3.18,2.73-6.48,5.32T624,470.69a154.83,154.83,0,0,1-14.28,8.83c-4.93,2.65-10,5.1-15.08,7.37-2.56,1.12-5.13,2.22-7.72,3.27s-5.22,2-7.86,2.92c2.6-1,5.16-2.12,7.71-3.26s5.11-2.27,7.63-3.46c5.06-2.37,10.08-4.81,15-7.5s9.66-5.57,14.31-8.64q3.5-2.31,6.88-4.78C632.8,463.82,635,462.14,637.23,460.42Z"/><path class="cls-5" d="M582.26,479.2s-35.58-40-21.79-79a1.77,1.77,0,0,1,3.12-.45C568.46,406.8,580.78,429.42,582.26,479.2Z"/><path class="cls-4" d="M564.68,414.81c.32,2.78.68,5.55,1.12,8.31s.89,5.51,1.43,8.24c1.08,5.48,2.29,10.93,3.89,16.27s3.31,10.66,5.16,15.92q1.4,3.94,2.89,7.86c1,2.62,2,5.22,3.09,7.79-1.2-2.52-2.33-5.08-3.43-7.65s-2.1-5.19-3.09-7.8q-3-7.86-5.34-15.91a156.22,156.22,0,0,1-3.73-16.37q-.72-4.14-1.22-8.3C565.12,420.39,564.87,417.6,564.68,414.81Z"/><path class="cls-5" d="M569.78,549.37s-45.83-27.62-44.23-69a1.78,1.78,0,0,1,2.86-1.36C535.15,484.31,553.62,502.26,569.78,549.37Z"/><path class="cls-4" d="M533.91,493.08c1.12,2.56,2.3,5.1,3.53,7.6s2.48,5,3.81,7.46c2.65,4.91,5.42,9.75,8.53,14.38s6.32,9.2,9.65,13.68c1.66,2.24,3.36,4.45,5.09,6.65s3.45,4.39,5.26,6.52c-1.9-2-3.74-4.16-5.55-6.29s-3.54-4.33-5.26-6.53q-5.15-6.63-9.81-13.62a158,158,0,0,1-8.42-14.53c-1.27-2.49-2.48-5-3.63-7.57S534.92,495.69,533.91,493.08Z"/><path class="cls-1" d="M629.69,367.94s-27.78-45.72-7.17-81.64a1.77,1.77,0,0,1,3.16.12C629.19,294.24,637.23,318.71,629.69,367.94Z"/><path class="cls-4" d="M624,301.44c-.19,2.79-.33,5.58-.39,8.37s-.12,5.58-.09,8.37c.07,5.58.29,11.16.89,16.7s1.33,11.08,2.21,16.59c.43,2.76.91,5.51,1.42,8.25s1,5.49,1.63,8.22q-1.08-4.05-2-8.14t-1.63-8.23q-1.5-8.26-2.38-16.62a153.89,153.89,0,0,1-.72-16.77c0-2.8.13-5.59.3-8.39S623.71,304.22,624,301.44Z"/><path class="cls-5" d="M663,281s45.08-28.81,42.39-70.13a1.78,1.78,0,0,0-2.89-1.29C695.93,215,677.93,233.47,663,281Z"/><path class="cls-4" d="M697.4,223.78c-.95,2.63-1.94,5.24-3,7.83s-2.22,5.13-3.42,7.66a157.86,157.86,0,0,1-8,14.74q-4.47,7.11-9.46,13.87c-1.66,2.25-3.35,4.47-5.09,6.67s-3.53,4.33-5.37,6.43q2.61-3.27,5.08-6.65t4.92-6.79c3.21-4.56,6.36-9.17,9.28-13.92s5.63-9.63,8.15-14.6c1.27-2.49,2.46-5,3.61-7.56S696.34,226.36,697.4,223.78Z"/><path class="cls-5" d="M569.34,249.63s45.09-28.81,42.4-70.13a1.77,1.77,0,0,0-2.89-1.29C602.26,183.68,584.26,202.12,569.34,249.63Z"/><path class="cls-4" d="M603.72,192.43c-.94,2.63-1.93,5.24-3,7.83s-2.22,5.13-3.42,7.66a155.65,155.65,0,0,1-8,14.74q-4.46,7.11-9.45,13.87-2.49,3.38-5.09,6.67c-1.75,2.18-3.54,4.33-5.38,6.43,1.75-2.18,3.44-4.4,5.09-6.65s3.31-4.5,4.91-6.79c3.22-4.56,6.37-9.17,9.29-13.92s5.63-9.63,8.15-14.6q1.89-3.73,3.61-7.56C601.56,197.58,602.67,195,603.72,192.43Z"/><path class="cls-5" d="M654.19,318.56s51.29-15.24,60.12-55.7a1.77,1.77,0,0,0-2.42-2C704,264.26,681.65,277,654.19,318.56Z"/><path class="cls-4" d="M703,273.07c-1.63,2.27-3.31,4.51-5,6.7s-3.55,4.32-5.4,6.42a160.15,160.15,0,0,1-11.79,11.95c-4.17,3.74-8.49,7.31-12.92,10.72q-3.33,2.55-6.73,5c-2.29,1.61-4.6,3.19-6.95,4.7,2.28-1.61,4.52-3.29,6.73-5s4.42-3.41,6.6-5.16c4.34-3.5,8.65-7.06,12.76-10.83s8.08-7.69,11.87-11.78q2.85-3.06,5.55-6.26C699.53,277.43,701.3,275.27,703,273.07Z"/><path class="cls-5" d="M658.35,192.76s40.74-34.69,32.45-75.26a1.77,1.77,0,0,0-3-.88C682,122.94,666.66,143.65,658.35,192.76Z"/><path class="cls-4" d="M684.62,131.4c-.58,2.74-1.21,5.46-1.91,8.17s-1.5,5.39-2.35,8.05a155.89,155.89,0,0,1-6,15.71q-3.45,7.65-7.47,15-2,3.69-4.13,7.3c-1.44,2.4-2.92,4.78-4.46,7.11,1.44-2.4,2.81-4.83,4.14-7.29s2.66-4.91,3.94-7.39c2.56-5,5.06-10,7.3-15.06s4.27-10.3,6.09-15.57c.91-2.64,1.75-5.3,2.54-8S683.92,134.11,684.62,131.4Z"/><path class="cls-5" d="M658.35,192.76S613.27,164,616,122.62a1.76,1.76,0,0,1,2.88-1.28C625.44,126.81,643.43,145.24,658.35,192.76Z"/><path class="cls-4" d="M624,135.55c1.06,2.59,2.17,5.16,3.34,7.69s2.34,5.07,3.61,7.55c2.52,5,5.16,9.89,8.15,14.6s6.07,9.37,9.28,13.93q2.42,3.42,4.92,6.78c1.65,2.25,3.34,4.48,5.08,6.66-1.84-2.1-3.62-4.25-5.37-6.43s-3.43-4.43-5.1-6.67q-5-6.76-9.45-13.87a159.3,159.3,0,0,1-8-14.75c-1.2-2.52-2.35-5.08-3.42-7.66S624.92,138.18,624,135.55Z"/><path class="cls-3" d="M535.32,640.83c0-47.08,31.2-59.2,35.42-97.26,6.14-55.31-26-81.13-32.68-142C531.18,339,559.35,312.55,568.7,261.7,578.87,206.41,566.83,122.14,459.42.25"/><path class="cls-3" d="M571.43,525.59a449.57,449.57,0,0,1,16.16-65.25c25.47-77.45,56.95-101.42,71-158.81,5.8-23.74,10.31-60.07-.51-108.77"/><rect class="cls-3" x="99.55" y="148.7" width="120.82" height="228.05" rx="13.99"/><rect class="cls-3" x="50.94" y="207.32" width="218.05" height="110.82" rx="8.99" transform="translate(422.69 102.76) rotate(90)"/><rect class="cls-3" x="141.71" y="159.03" width="36.51" height="3.83" rx="1.91"/><circle class="cls-3" cx="112.72" cy="160.94" r="3.32"/></g><g id="Layer_2-2" data-name="Layer 2"><path class="cls-3" d="M4.44,486.56s-11.28,5.21,3.16,29,24.08,35.39,24.08,35.39,2.67,5.57-2.1,6.82-15.53.34-17.24,6.41c-1.78,6.29,3.1,11.75,12.5,16.15s29.66,14.82,31.48,15.77,3.72,3.47.61,4.84-26.85,5.64-24.16,16.78,30.92,19.12,34,20,3.87,2.14,3.75,3.8-8.24,2.33-14.94,3.82-14.22,4.39-12.12,10.69,19.37,18.59,59.18,19.54l18.47-.77L130,658.53c16.87-36.07,13.57-57,8.86-61.68s-10.65.75-15,6.09-8.54,12.3-10.08,11.67-2.26-1.89-1.73-5.05,6-32-2.81-39.35-23.17,12-25.78,14.15-4-.68-4.07-2.7-.34-24.82-.1-35.21-2.47-17.18-8.9-18.39c-6.2-1.17-10.17,8.88-13.41,12.59s-7.05-1.16-7.05-1.16S43.86,525.7,29,502.17,4.22,486.68,4.22,486.68"/><path class="cls-3" d="M18.26,508.93c37.56,58.53,75.38,121.31,113,179.84"/><polyline class="cls-3" points="129.04 619.65 109.49 654.56 67.2 657.14"/><polyline class="cls-3" points="100.83 587.8 85.06 615.47 47.25 615.15"/><polyline class="cls-3" points="67.92 541.67 60.02 575.18 27.03 570.26"/><path class="cls-3" d="M149.08,463.11s-8.22-.23-6.65,18.12,3.87,28.06,3.87,28.06-.06,4.09-3.25,3.43-9.31-4.37-12.11-1.28-1.62,7.88,2.66,13.26,13.22,17.51,14,18.61,1.18,3.15-1.07,3.05S129,541.8,127.31,549.2s12.7,20.42,14.25,21.88,1.66,2.41,1.1,3.35-5.57-1-10-2.12-9.72-1.58-10.33,2.77,6,16.72,29.34,29l11.18,5L172.93,602c20.61-16.42,24.81-29.81,23.39-34s-6.53-2.68-10.66-.79-8.69,4.78-9.41,4-.79-1.79.46-3.5,12.94-17.21,9.9-24.16-17.25.28-19.44.81-2.2-1.59-1.62-2.8,7.1-14.82,10.3-20.9,3.59-10.91.13-13.52-8.64,2.27-11.65,3.51-3.84-2.75-3.84-2.75.45-10-1.45-28.29-10.12-16.47-10.12-16.47"/><path class="cls-3" d="M150.7,480.44c5.05,45.75,9,94.09,14.06,139.84"/><polyline class="cls-3" points="183.81 578.66 161.95 593.61 136.12 582.7"/><polyline class="cls-3" points="176.45 551.48 158.97 563.25 136.64 551.94"/><polyline class="cls-3" points="170.51 514.46 155.96 532 137.86 519.38"/><path class="cls-6" d="M479.29,728.68l.94-1c.79-.82,1.57-1.64,2.34-2.47.22-.25.46-.49.68-.74q1.49-1.62,2.94-3.27c.16-.19.31-.38.47-.56q1.2-1.38,2.37-2.79l.85-1,2-2.5.8-1c.83-1.06,1.65-2.13,2.46-3.22l.2-.27c.88-1.18,1.74-2.38,2.6-3.58l.69-1c.62-.89,1.24-1.78,1.84-2.68.27-.39.54-.79.8-1.19.61-.92,1.21-1.85,1.81-2.78l.63-1c.78-1.24,1.56-2.49,2.32-3.76.15-.24.29-.49.44-.74.61-1,1.22-2.06,1.82-3.1.25-.42.49-.85.73-1.28.51-.9,1-1.81,1.51-2.71l.72-1.31c.59-1.09,1.17-2.19,1.74-3.29l.35-.67c.67-1.31,1.33-2.62,2-3.94l.64-1.33c.44-.92.88-1.84,1.31-2.77.24-.51.48-1,.71-1.53q.64-1.38,1.26-2.79c.2-.46.41-.91.61-1.37.58-1.34,1.15-2.68,1.71-4,.17-.4.33-.8.5-1.21.4-1,.81-2,1.2-3,.23-.57.45-1.14.67-1.71l1-2.6c.22-.58.44-1.17.65-1.75.36-1,.71-2,1-2.92.17-.47.34-.93.5-1.4.47-1.35.92-2.71,1.37-4.07.21-.62.41-1.25.61-1.87.27-.83.53-1.66.79-2.49.22-.68.43-1.36.64-2l.72-2.41c.2-.68.4-1.36.59-2,.32-1.11.63-2.21.93-3.32.26-.93.51-1.87.76-2.8s.41-1.57.61-2.36.39-1.55.59-2.33l.51-2.12c.2-.8.39-1.61.58-2.42s.3-1.35.46-2c.36-1.6.71-3.21,1-4.82.11-.53.23-1.07.34-1.6l.54-2.74c.11-.58.23-1.17.34-1.76l.51-2.78c.1-.54.2-1.09.29-1.63.17-1,.35-2,.51-2.94l.06-.41q.57-3.44,1.07-6.9l.15-1c.15-1.07.29-2.15.44-3.23l.15-1.21c.15-1.11.28-2.21.42-3.32,0-.23.05-.46.08-.69q.66-5.64,1.15-11.32c0-.2,0-.4,0-.6.1-1.23.2-2.47.29-3.71,0-.16,0-.33,0-.49q.59-8.06.83-16.13v0C548.15,431.72,498.5,313.22,421.53,311c-31.54-.93-56.23,7.85-76.2,22.45l-.05,0c-.66.48-1.32,1-2,1.47l-.13.09-1.86,1.45-.21.18q-.89.69-1.74,1.41a3.88,3.88,0,0,0-.31.26c-.55.45-1.09.9-1.62,1.37L337,340l-1.49,1.31-.52.47L333.67,343l-.66.62-1.18,1.11-.83.82-1,1L329,347.62l-.72.73c-.47.48-.93,1-1.39,1.45l-.36.38c-52.11,55.47-66.8,153.24-105,182.37a.78.78,0,0,0-.05.14,49.06,49.06,0,0,1-4.12,2.8c-30.09,18.13-32.75,12.55-76.11,39C109.45,594,95.55,649.85,118,698.11l.17.38c.37.79.76,1.58,1.15,2.37l.26.52q1.82,3.61,3.92,7.15l.36.62c.43.71.86,1.41,1.31,2.11l.51.81q2.1,3.27,4.45,6.45c.24.32.47.64.71,1,.45.6.91,1.2,1.38,1.79l.88,1.11,1.4,1.71c.32.39.66.77,1,1.16.8.93,1.61,1.85,2.45,2.77.4.43.79.87,1.2,1.3s.92,1,1.39,1.45.89.91,1.34,1.36.9.91,1.36,1.35c.69.67,1.4,1.33,2.11,2L147,737c.59.53,1.2,1.06,1.81,1.59l1.37,1.16,1.84,1.51,1.31,1q1.49,1.17,3,2.31l1,.69c.83.61,1.67,1.2,2.52,1.79l1.33.9c.78.53,1.56,1,2.36,1.56l1.27.82c1.19.74,2.39,1.48,3.61,2.2l.61.35c1.08.63,2.16,1.24,3.27,1.85l1.31.71c.94.5,1.89,1,2.85,1.49l1.28.65c1.36.67,2.73,1.34,4.13,2l.29.13c1.32.61,2.67,1.2,4,1.79l1.35.56c1.08.45,2.18.89,3.28,1.33l1.36.53q2.28.87,4.63,1.7A302.13,302.13,0,0,0,250.08,779q6.41,1,12.67,1.72c2.09.24,4.16.46,6.23.65,6.18.6,12.25,1,18.18,1.25q3,.12,5.9.2c33.15.84,62-3,84.46-5.49l.21,0q2.41-.27,4.8-.6l1.63-.24,3.41-.53,1.71-.29,3.61-.67,1.26-.25c1.58-.32,3.15-.66,4.7-1l1.19-.28q1.77-.42,3.51-.87l1.58-.43c1.07-.29,2.13-.58,3.19-.89l1.46-.43c1.43-.43,2.85-.87,4.25-1.33l.22-.07c1.47-.49,2.92-1,4.37-1.52l1.33-.5q1.55-.57,3.06-1.17l1.42-.56,3.2-1.34,1-.44c1.38-.61,2.75-1.23,4.11-1.87l.89-.44c1.06-.51,2.12-1,3.17-1.56l1.29-.67c.95-.49,1.89-1,2.83-1.5l1.19-.65c1.24-.69,2.47-1.4,3.68-2.11l.17-.1q1.9-1.14,3.78-2.32c.35-.23.7-.46,1.06-.68.9-.59,1.8-1.18,2.69-1.78l1.16-.78c.94-.64,1.86-1.29,2.78-2l.84-.6q1.79-1.29,3.52-2.63l.63-.49c.95-.74,1.89-1.48,2.82-2.24l1-.85c.82-.68,1.64-1.36,2.45-2.06l1-.83c1.05-.91,2.09-1.84,3.11-2.78l.14-.12c1.08-1,2.14-2,3.19-3L477,731Z"/><path class="cls-1" d="M437.57,576.84c-29.91-2.51-78.42,31.67-78.42,31.67l-18.42-5-77.23-.05,5.4,17.06c1,7.6,13.31,8.61-1.14,18.52l-18.48-7.74s-104.71-37.69-112.14-41.66-45.7-12.75-58.34,18.72c-10.63,26.47,10.49,53,44.17,67.86S222,697.47,222,697.47l43,7.45,17.68.23c5.24,1.67,11.4,3.41,14.68,3.54,1.75.07,6.74-.11,13.16-.41.17.16.28.24.32.21s0-.1-.08-.22c13.22-.62,32.34-1.73,41.69-2.21l7.72.1A95,95,0,0,0,433.47,673c15-17.48,30.52-37.3,33.47-47.62C472.65,605.35,467.47,579.35,437.57,576.84Z"/><path class="cls-7" d="M427,583.47a70.19,70.19,0,0,0-19.76,5.67c-14.09,6.44-17.74,14-36.4,31.83-18.31,17.53-27.46,26.3-37.68,28.35-10.55,2.12-18.24-.62-27.81,5.49-6.52,4.17-8.5,12.78-10.67,17.29"/><path class="cls-2" d="M286.9,670.14S357.76,688,360.61,689c4.28,1.4,3.92,17-2.69,16.87-3.13-.05-54.05,3.12-60.5,2.86s-23.3-3.65-23.3-3.65l10-28.39Z"/><path class="cls-7" d="M113.16,596a66,66,0,0,1,11.53-.82c28.27.46,70.39,30.41,78.75,34.3,15.36,7.13,30.78,15.75,83.46,40.66"/><path class="cls-8" d="M307.32,677.44a13.45,13.45,0,0,0-3.6,4.52,13.9,13.9,0,0,0-1,8.86"/><path class="cls-8" d="M315.38,679.84a26.66,26.66,0,0,0-3.05,4.8,27.3,27.3,0,0,0-2.52,7.83"/><path class="cls-8" d="M324.44,682.48a16.19,16.19,0,0,0-7.22,13"/><path class="cls-8" d="M331.87,685a18.54,18.54,0,0,0-2.67,4.14,19,19,0,0,0-1.79,7.33"/><path class="cls-8" d="M349.51,686a15.52,15.52,0,0,0-4.26,7.72c-.94,4.35,1.82,11.31,2.33,12.56"/><path class="cls-8" d="M274.62,703.62c1.49-1.14,9.93-6.66,18.56-5.93,10.77.92,16.83,9.42,17.64,10.58"/><path class="cls-8" d="M303.29,682.93a19.42,19.42,0,0,1-7.71,4.92,5.27,5.27,0,0,1-3.68.23,3.61,3.61,0,0,1-1.6-1.37,2.11,2.11,0,0,1-.3-2.18,2.38,2.38,0,0,1,1.11-.86,24.29,24.29,0,0,1,2.6-1,25.12,25.12,0,0,1,3.91-1.07,8.9,8.9,0,0,1,3.67,0c.77.2,1.5.56,2.27.73"/><path class="cls-8" d="M303.83,681.75c-.44-3.68-.61-7.13-.79-8.84s-.45-4.39-2.06-5.74a1.76,1.76,0,0,0-1.37-.52c-.75.14-1.13,1.11-1.28,1.48-.5,1.29-.56,3.19,1.12,7.43.58,1.46,2.85,4.13,4.11,6.32"/><path class="cls-9" d="M230.85,408.22a1.53,1.53,0,1,0-3-.43h0l-9,63.45,3.06.44,9-63.46Z"/><path class="cls-10" d="M209.24,477.38s-.74-20.47,7.63-23L230.25,458s3.42,2.89.37,7.79-5.18,15.72-5.18,15.72l-9.72-2Z"/><path class="cls-2" d="M325.92,659.11s15.94,2.83,27.65-9.8c10.52-11.35,42.6-91.62,46.77-111.08s12.48-40.58-34.65-57.71c-46.87-17-76.27-14.3-85.23-9.66-10.19,5.27-15.94,15.76-20.61,46.75S248,622.71,267.76,639s58.16,20.12,58.16,20.12"/><path class="cls-2" d="M258.83,554.47c-7.94,22.71-28.37,53.48-41.33,60.6-12.45,6.84-19.05,2.85-22.86-.78-28.14-26.84,1.62-113.52,14.6-136.91,5.34,1.5,10.78,2.82,16.2,4.08-.73,25-2.5,55.53-8.57,79.26,5-37.29,27.95-76.88,64.1-90.12C277.74,498.62,266.76,531.76,258.83,554.47Z"/><rect class="cls-10" x="305.37" y="410.5" width="31.51" height="25.06" transform="translate(-126.62 708.7) rotate(-85.34)"/><path class="cls-10" d="M309.91,406.31S299.8,427.09,301.13,437c.92,6.85,9.67,9.46,16.18,5.82a13.12,13.12,0,0,0,5.63-6.32Z"/><path class="cls-10" d="M315.29,466.74s-8.56,8.06-2.39,16.79,26.88,10.6,37.12-7.91c0,0-27.48-12-34.73-8.88"/><path class="cls-9" d="M308.29,409.85s-2.53-5,2.39-7.94,12.92-.78,18.44-4.57,14.35.17,12.63,9.47-2.06,20.35-8.35,19.78c0,0-6-7.42-6.12-14,0,0-14.11.87-18.34-3.74Z"/><path class="cls-9" d="M345.57,394.68a8.84,8.84,0,0,1-6.52,13.51,9.67,9.67,0,0,1-8.37-4,8.82,8.82,0,1,1,14.89-9.47Z"/><path class="cls-9" d="M334.65,426.52s3.94,10.41,9.68,13.79,3.18,10,.83,10.25c0,0-9.59-12.63-11.76-24Z"/><path class="cls-10" d="M314.62,467.58s2-14.69-6.38-37.41l23.18-9s7.85,39.09,18.6,54.45c0,0-24.76-6.72-35.4-8"/><path class="cls-10" d="M327.86,414.93s3.44-2.84,6,.25c2.08,2.55.53,9.3-6.84,8.66a10.32,10.32,0,0,1,.88-8.91"/><path class="cls-11" d="M317.88,442.43a23.56,23.56,0,0,0,8.91-10A11.26,11.26,0,0,1,317.88,442.43Z"/><path class="cls-2" d="M401.67,506.92c16.14,36.51,25.77,59.83,28.93,101.55,2.13,28-46.22,50.47-66.4,65.39-4,2.94-13.24-6.57-11.75-9.21,9.57-16.87,36.16-36,37.86-54.58s-15.65-35.4-15.48-55.26S391,524.08,401.67,506.92Z"/><path class="cls-1" d="M349.83,474.86l.19.76c-10.24,18.51-30.95,16.65-37.12,7.91-5-7.12-.27-13.79,1.66-16h0l-2.31-.29c-7.06,1.41-11.29,22.9,11.58,25.76s29.23-17.27,29.23-17.27Z"/><path class="cls-10" d="M214.69,455.66a10.83,10.83,0,0,1,9.91-2.87c6.11,1.31-2.67,1.33-4.74,5.95S214.69,455.66,214.69,455.66Z"/><circle class="cls-9" cx="310.34" cy="403.35" r="6.86"/><circle class="cls-9" cx="383.14" cy="409.27" r="6.7"/><circle class="cls-9" cx="360.09" cy="407.53" r="3.1"/><circle class="cls-9" cx="338.25" cy="426.86" r="3.86"/><circle class="cls-9" cx="326.29" cy="394.22" r="11.68"/><circle class="cls-9" cx="349.26" cy="414.82" r="11.68"/><circle class="cls-9" cx="369.24" cy="401.42" r="11.68"/><circle class="cls-9" cx="341.54" cy="429.41" r="11.68"/><circle class="cls-9" cx="342.98" cy="397.75" r="19.4"/><circle class="cls-9" cx="368.21" cy="438.54" r="30.82"/><circle class="cls-9" cx="356.51" cy="383.09" r="33.01"/><path class="cls-10" d="M352.45,664.65s-8.95,8.67-11.74,14.85-6.73,16.4-2.56,20.06L363.62,674Z"/><path class="cls-10" d="M364,674a82.85,82.85,0,0,1-4.63,9.52c-2,3.12-5.31,8-6.89,7.12l7.25-19.38Z"/></g></g></svg>