<?xml version="1.0" encoding="utf-8"?>
<!-- Generator: Adobe Illustrator 24.1.0, SVG Export Plug-In . SVG Version: 6.00 Build 0)  -->
<svg version="1.1" id="Layer_1" xmlns="http://www.w3.org/2000/svg" xmlns:xlink="http://www.w3.org/1999/xlink" x="0px" y="0px"
	 viewBox="0 0 94.2 92.4" style="enable-background:new 0 0 94.2 92.4;" xml:space="preserve">
<path id="Layer_2_1_" d="M90.3,36.2C87,32.5,83.4,29,79.5,25.8L77,28.9c3.7,3.1,7.1,6.4,10.3,10c3.7,4.2,3.7,10.5,0,14.7
	c-7.6,8.5-23,22.8-40.3,22.8c-5.5-0.1-11-1.4-16-3.8l-1.7,3.6c5.5,2.7,11.6,4.1,17.7,4.2c18.8,0,35.2-15.1,43.2-24.1
	C95.4,50.5,95.4,41.9,90.3,36.2z M37.7,58.4l21.5-21.5l0,0l34-34L90.4,0L70.9,19.5c-8.1-5-16.1-7.5-23.8-7.5
	C28.3,12,11.9,27.1,3.9,36.1c-5.1,5.7-5.1,14.3,0,20c4.8,5.4,10.1,10.2,16,14.4l-19,19l2.8,2.8L37.7,58.4L37.7,58.4z M6.8,53.5
	c-3.7-4.2-3.7-10.5,0-14.7c7.6-8.5,23-22.8,40.3-22.8c6.7,0,13.8,2.1,20.9,6.4L56.3,34.1C49.7,29,40.1,30.3,35,37
	c-4.2,5.5-4.2,13,0,18.5L22.7,67.7C16.9,63.6,11.6,58.9,6.8,53.5z"/>
</svg>
