<?xml version="1.0" encoding="utf-8"?>
<!-- Generator: Adobe Illustrator 24.1.0, SVG Export Plug-In . SVG Version: 6.00 Build 0)  -->
<svg version="1.1" id="Layer_1" xmlns="http://www.w3.org/2000/svg" xmlns:xlink="http://www.w3.org/1999/xlink" x="0px" y="0px"
	 viewBox="0 0 94.2 68.2" style="enable-background:new 0 0 94.2 68.2;" xml:space="preserve">
<path id="Layer_2_1_" d="M90.3,24.1C82.2,15.1,65.9,0,47.1,0S11.9,15.1,3.8,24.1c-5.1,5.7-5.1,14.3,0,20c8.1,9,24.4,24.1,43.2,24.1
	s35.2-15.1,43.2-24.1C95.4,38.4,95.4,29.8,90.3,24.1z M87.3,41.4c-7.6,8.5-23,22.8-40.3,22.8S14.4,49.9,6.8,41.4
	c-3.7-4.2-3.7-10.5,0-14.7C14.4,18.3,29.8,4,47.1,4s32.6,14.3,40.3,22.8C91.1,30.9,91.1,37.3,87.3,41.4L87.3,41.4z M47.1,20.9
	c7.3,0,13.2,5.9,13.2,13.2s-5.9,13.2-13.2,13.2s-13.2-5.9-13.2-13.2S39.8,20.9,47.1,20.9z"/>
</svg>
