<svg xmlns="http://www.w3.org/2000/svg" viewBox="0 0 286.49 311.16"><defs><style>.cls-1{fill:#5775c9;}</style></defs><g id="Layer_2" data-name="Layer 2"><g id="Layer_1-2" data-name="Layer 1"><path class="cls-1" d="M48.65,205.68A30.65,30.65,0,1,0,79.3,175,30.69,30.69,0,0,0,48.65,205.68Zm49.3,0A18.65,18.65,0,1,1,79.3,187,18.68,18.68,0,0,1,98,205.68Z"/><path class="cls-1" d="M185.45,205.68A30.65,30.65,0,1,0,216.1,175,30.69,30.69,0,0,0,185.45,205.68Zm49.3,0A18.65,18.65,0,1,1,216.1,187,18.68,18.68,0,0,1,234.75,205.68Z"/><path class="cls-1" d="M169.31,229.39a18.66,18.66,0,0,1-35.32,0,6,6,0,0,0-11.36,3.86,30.65,30.65,0,0,0,58,0,6,6,0,0,0-11.36-3.86Z"/><path class="cls-1" d="M267.43,157.24a6,6,0,1,0-10.93,4.94L268,187.56a73.37,73.37,0,0,1,5.9,39.75l-3.14,24a13.27,13.27,0,0,1-13.13,11.52H36.06a13.26,13.26,0,0,1-13.12-11.52l-3.14-24a73.37,73.37,0,0,1,5.9-39.75l34.58-76.49A45.21,45.21,0,0,1,91.05,85.81a6,6,0,1,0-2.71-11.68,57.24,57.24,0,0,0-39,32L42.63,121A24.36,24.36,0,0,0,3.25,149.25a6,6,0,0,0,5.2,3,5.9,5.9,0,0,0,3-.81,6,6,0,0,0,2.21-8.19,12.37,12.37,0,1,1,22.83-8.67l-21.72,48A85.33,85.33,0,0,0,7.9,228.86l3.14,24a25.3,25.3,0,0,0,15.67,20.15v32.11a6,6,0,0,0,6,6H78.43a6,6,0,0,0,6-6V274.87h124.8v30.29a6,6,0,0,0,6,6H261a6,6,0,0,0,6-6V273.05a25.3,25.3,0,0,0,15.67-20.15l3.14-24a85.33,85.33,0,0,0-6.87-46.24Zm-195,141.92H38.71V274.87H72.43Zm182.53,0H221.23V274.87H255Z"/><path class="cls-1" d="M191.61,160.74a80,80,0,0,0,39-10.09l.26-.17.19-.12a5.73,5.73,0,0,0,.8-.66l.07,0,.07-.09a5.33,5.33,0,0,0,.67-.82l.08-.13a6.9,6.9,0,0,0,.45-.85l.06-.14a7.61,7.61,0,0,0,.29-1c0-.07,0-.14,0-.21s0-.14,0-.22a5.11,5.11,0,0,0,0-.78v-.14a7.45,7.45,0,0,0-.09-.95c0-.05,0-.09,0-.14a6.14,6.14,0,0,0-.29-.95,1.43,1.43,0,0,0-.08-.22,5.71,5.71,0,0,0-.47-.88.91.91,0,0,0-.11-.16,6.11,6.11,0,0,0-.69-.85l-25.4-25.4a6,6,0,0,0-5.82-1.55A35.11,35.11,0,0,1,158,69.78l17.73,17.73a6,6,0,0,0,8.48,0l14.42-14.42a6,6,0,0,0,0-8.48L180.88,46.88A35.11,35.11,0,0,1,225.31,89.6a6,6,0,0,0,1.55,5.82l25.4,25.4a6.27,6.27,0,0,0,.86.7l.14.1a6.49,6.49,0,0,0,.9.48l.19.07a5.78,5.78,0,0,0,1,.29l.09,0a5.66,5.66,0,0,0,1,.09h.11a7,7,0,0,0,.79-.06l.22,0,.21,0a6.26,6.26,0,0,0,1-.29l.14-.06a6.9,6.9,0,0,0,.85-.45l.13-.08a4.8,4.8,0,0,0,.82-.67l.09-.07.05-.06a6.48,6.48,0,0,0,.66-.81l.12-.18c.05-.09.11-.18.17-.27A80.45,80.45,0,0,0,142.91,16.23a78.32,78.32,0,0,0-8.33,7.26,80.38,80.38,0,0,0,57,137.25ZM136.9,39.05a68.44,68.44,0,0,1,117.87,67.31L237.69,89.28a46.7,46.7,0,0,0,.74-5.74c.06-1,.1-1.91.1-2.87a47.08,47.08,0,0,0-71.08-40.83,6,6,0,0,0-1.18,9.4l19.61,19.61L180,74.78,160.34,55.17a5.86,5.86,0,0,0-1.08-.85,6,6,0,0,0-8.32,2,47.08,47.08,0,0,0,35.12,70.77c.52.06,1,.09,1.56.13s.85.09,1.28.11a47.22,47.22,0,0,0,11.48-.77l17.08,17.09A68.44,68.44,0,0,1,136.9,39.05Z"/></g></g></svg>