<svg xmlns="http://www.w3.org/2000/svg" viewBox="0 0 311.93 312.33"><defs><style>.cls-1{fill:#9160e0;}</style></defs><g id="Layer_2" data-name="Layer 2"><g id="Layer_1-2" data-name="Layer 1"><path class="cls-1" d="M309.16,185.22a20.11,20.11,0,0,0-20.69-9.74l10.21-38.8a20.18,20.18,0,0,0-22.79-25.08l.13-.47a20.19,20.19,0,0,0-33.19-20A20.21,20.21,0,0,0,208,99.17l-3.48,13.24A20.19,20.19,0,0,0,172.33,123l-16.55,62.89L148,215.67a77,77,0,1,0,149,39.22l7.83-29.76,6.47-24.58A20.11,20.11,0,0,0,309.16,185.22ZM222.44,300.33a65.06,65.06,0,0,1-62.89-81.61L167.38,189l16.56-62.9a8.21,8.21,0,0,1,10-5.85,8.22,8.22,0,0,1,5.85,10l-.9,3.41-15.65,59.48a6,6,0,0,0,4.27,7.33,5.8,5.8,0,0,0,1.53.2,6,6,0,0,0,5.8-4.47L203,165.12h0l7.48-28.41.9-3.41h0l8.18-31.08a8.21,8.21,0,0,1,15.87,4.18l-16.55,62.9a6,6,0,0,0,4.27,7.33,6.24,6.24,0,0,0,1.53.2,6,6,0,0,0,5.8-4.48l1.46-5.56h0l16.55-62.9a8.21,8.21,0,1,1,15.87,4.18L247.86,171h0L243,189.29a6,6,0,1,0,11.61,3.05l16.55-62.9a8.21,8.21,0,1,1,15.87,4.18l-14.9,56.63h0l-15.26,58a6,6,0,0,0,4.28,7.33,5.74,5.74,0,0,0,1.53.2,6,6,0,0,0,5.8-4.47l13.6-51.7v0l1.65-6.28a8.21,8.21,0,0,1,15.87,4.21l-6.47,24.57-7.83,29.76A65.17,65.17,0,0,1,222.44,300.33ZM150.09,54c15.15,0,36,20.87,36,36a6,6,0,1,0,12,0c0-15.15,20.87-36,36-36a6,6,0,0,0,0-12c-15.15,0-36-20.87-36-36a6,6,0,0,0-12,0c0,15.15-20.87,36-36,36a6,6,0,0,0,0,12Zm42-28.65A66,66,0,0,0,214.76,48a66.08,66.08,0,0,0-22.65,22.65A66.11,66.11,0,0,0,169.45,48,66,66,0,0,0,192.11,25.37ZM85.69,157.24a6,6,0,0,0,6,6c8.42,0,21,12.54,21,21a6,6,0,0,0,12,0c0-8.42,12.53-21,21-21a6,6,0,1,0,0-12c-8.42,0-21-12.53-21-21a6,6,0,0,0-12,0c0,8.42-12.53,21-21,21A6,6,0,0,0,85.69,157.24Zm33-10.51a44.86,44.86,0,0,0,10.52,10.51,44.9,44.9,0,0,0-10.52,10.52,44.86,44.86,0,0,0-10.51-10.52A44.82,44.82,0,0,0,118.64,146.73ZM87.72,176.89a6,6,0,0,1-3.21,7.85c-3,1.26-6,2.6-8.84,4a5.92,5.92,0,0,1-2.6.6,6,6,0,0,1-2.61-11.41c3.05-1.47,6.21-2.89,9.4-4.23A6,6,0,0,1,87.72,176.89ZM.78,242.69a158.48,158.48,0,0,1,44.87-50.18c1.87-1.35,3.82-2.69,5.82-4A6,6,0,1,1,58,198.59c-1.83,1.19-3.62,2.42-5.32,3.65A146.37,146.37,0,0,0,11.22,248.6,6,6,0,1,1,.78,242.69ZM137.23,220a6,6,0,0,1-5.2,6.71A163.77,163.77,0,0,0,11.18,306.4a6,6,0,0,1-5.19,3,5.93,5.93,0,0,1-3-.83,6,6,0,0,1-2.14-8.21,175.77,175.77,0,0,1,129.7-85.54A6,6,0,0,1,137.23,220ZM26.74,155.24a6,6,0,0,1,.21-8.49,385.56,385.56,0,0,1,51.52-41.17,6,6,0,1,1,6.66,10,373.19,373.19,0,0,0-49.91,39.89,6,6,0,0,1-8.48-.21ZM1.47,173.38c2.72-3.11,5.53-6.24,8.36-9.29a6,6,0,0,1,8.79,8.16c-2.74,3-5.46,6-8.09,9a6,6,0,0,1-9.06-7.88ZM97,100.91a6,6,0,0,1,2.19-8.2,384.06,384.06,0,0,1,59.74-27.95A6,6,0,0,1,163.06,76a371,371,0,0,0-57.87,27.07,6,6,0,0,1-8.2-2.19Z"/></g></g></svg>