<?xml version="1.0" encoding="utf-8"?>
<!-- Generator: Adobe Illustrator 24.1.0, SVG Export Plug-In . SVG Version: 6.00 Build 0)  -->
<svg version="1.1" id="Layer_1" xmlns="http://www.w3.org/2000/svg" xmlns:xlink="http://www.w3.org/1999/xlink" x="0px" y="0px"
	 viewBox="0 0 114 94.1" style="enable-background:new 0 0 114 94.1;" xml:space="preserve">
<path d="M110,0H59c-2.2,0-4,1.8-4,4v22H3.7c0,0,0,0,0,0c-2,0-3.6,1.6-3.7,3.6v64.4h55h4h55V4C114,1.8,112.2,0,110,0z M55,90.1H4
	L4,30h51V90.1z M110,90.1H59l0-3.2l0-57.3c0,0,0,0,0,0L59,4h51V90.1z M84.5,31.4C84.5,31.4,84.6,31.4,84.5,31.4l18.7,0V11H65.8v20.4
	L84.5,31.4C84.4,31.4,84.5,31.4,84.5,31.4z M99.2,27.4H86.5V15h12.7V27.4z M69.8,15h12.7v12.4H69.8V15z M103.2,55.7V35.3H65.8v20.4
	H103.2z M99.2,51.7H86.5V39.3h12.7V51.7z M69.8,39.3h12.7v12.4H69.8V39.3z M103.2,80V59.6H65.8V80H103.2z M99.2,76H86.5V63.6h12.7
	V76z M69.8,63.6h12.7V76H69.8V63.6z M48.2,55.7V35.3H10.8v20.4H48.2z M44.2,51.7H31.5V39.3h12.7V51.7z M14.8,39.3h12.7v12.4H14.8
	V39.3z M48.2,80V59.6H10.8V80H48.2z M44.2,76H31.5V63.6h12.7V76z M14.8,63.6h12.7V76H14.8V63.6z"/>
</svg>
