<svg xmlns="http://www.w3.org/2000/svg" viewBox="0 0 312 310.04"><defs><style>.cls-1{fill:#e0607d;}</style></defs><g id="Layer_2" data-name="Layer 2"><g id="Layer_1-2" data-name="Layer 1"><path class="cls-1" d="M302.83,205.84a48,48,0,0,1-3.67-3.48c-5.74-6.22-9.17-15.22-10.22-26.74.1-4.49-2.42-10.93-7.72-15.2a19.57,19.57,0,0,0-10.39-4.19c3.94-13.46,3-23-2.8-28.31-3.15-2.9-6-3.25-14.33-4.27l-.56-.07c-24.88-3-27.44-3.71-29.55-4.54a38.22,38.22,0,0,1-15.54-11.65c-2.88-3.59-3.78-6.4-4.92-10a44.87,44.87,0,0,0-6.81-14.15,85.46,85.46,0,0,0-18.09-18.47c-16-12-33.16-15.72-44.74-16.76a6,6,0,0,0-1.08,12A75.91,75.91,0,0,1,171,74.43,74.8,74.8,0,0,1,186.59,90.3a33.4,33.4,0,0,1,5.11,10.79,38.61,38.61,0,0,0,7,13.8,50.39,50.39,0,0,0,20.54,15.33c3.34,1.3,5.93,2,32.46,5.27l.56.07c3.75.46,7,.85,7.67,1.19,1.71,1.58,2.88,8.56-3.61,24.7a6,6,0,0,0,8.16,7.65,8.74,8.74,0,0,1,9.23.66,9.38,9.38,0,0,1,3.08,4.69,73.41,73.41,0,0,1-14.66,17.75c-1.75,1.54-3.6,3-5.49,4.36a6,6,0,0,0,7,9.75c2.21-1.58,4.37-3.3,6.42-5.09a84.07,84.07,0,0,0,9.66-10,48.67,48.67,0,0,0,10.66,19.31,55.89,55.89,0,0,0,4.55,4.35c2.31,2,3.36,3,4.18,5,3.15,7.47-2.64,17.66-4.82,21.5-13.44,23.71-43.6,34.39-56.47,38.95l-2.64.94c-18,6.58-51.52,18.83-73.36,3.84-13.67-9.37-16.89-26.6-22.74-57.89q-.93-5-2-10.41c-2.8-14.65-3-24.26-3.36-38.79-.28-11.93-.63-26.77-2.46-50C126.45,66.79,118.9,54.6,113.9,46.53l-.07-.12C98.1,21,71.27,19.61,53.52,18.69c-4-.21-7.43-.39-10.19-.79A98.33,98.33,0,0,0,7.55.2a6,6,0,0,0-3.1,11.6A86,86,0,0,1,37,28.2h0c24.51,20,30.37,49.1,33.51,64.72,5.66,28.1,2.56,51.5-3.61,98.13-4.93,37.21-7.4,55.88-.23,82,4.33,15.76,17,25.23,25.36,31.5,2,1.53,3.8,2.85,5.09,4a6,6,0,1,0,7.94-9c-1.65-1.46-3.69-3-5.84-4.59-7.49-5.61-17.74-13.28-21-25.08-6.52-23.76-4.31-40.52.56-77.24,6.35-47.94,9.53-72,3.48-102.07C79.43,76.3,74.48,51.81,56.77,30.88c16.31.94,35.36,3.27,46.86,21.85l.07.11c4.39,7.09,11,17.8,15.6,76,1.81,22.91,2.15,37.57,2.43,49.35.35,15.13.59,25.13,3.57,40.76q1,5.42,2,10.36c6.22,33.31,10,53.41,27.74,65.59,9.95,6.83,21.32,9.27,32.71,9.27,19.43,0,38.93-7.12,51.56-11.74l2.52-.9c14.14-5,47.25-16.74,62.91-44.33,3-5.25,10.89-19.18,5.43-32.1C308.21,210.58,305.47,208.17,302.83,205.84Z"/><path class="cls-1" d="M188.56,111.5a43.37,43.37,0,0,0-25.35,9.8c-14.51,12.14-15.37,29.39-15.28,34.39a6,6,0,0,0,6,5.9h.1a6,6,0,0,0,5.9-6.1c0-2.6.29-16,11-25a31.31,31.31,0,0,1,18.27-7,6,6,0,0,0-.62-12Z"/><path class="cls-1" d="M197.58,142.73a6,6,0,0,0-8.17,2.31,34.54,34.54,0,0,1-8.51,10.08,35.07,35.07,0,0,1-12.77,6.5,6,6,0,0,0,3.12,11.59,47.29,47.29,0,0,0,17.18-8.75,46.39,46.39,0,0,0,11.45-13.56A6,6,0,0,0,197.58,142.73Z"/><path class="cls-1" d="M145.83,192.87a6,6,0,0,0,6.36,5.62,76.58,76.58,0,0,1,11.57.22,5.07,5.07,0,0,0,.55,0,6,6,0,0,0,.55-12,86.5,86.5,0,0,0-13.41-.24A6,6,0,0,0,145.83,192.87Z"/><path class="cls-1" d="M224.9,216.47a6,6,0,1,0-8.91,8,78.85,78.85,0,0,1,11.28,16.27,6,6,0,1,0,10.64-5.55A90.33,90.33,0,0,0,224.9,216.47Z"/><path class="cls-1" d="M179.48,195.24a6,6,0,0,0,3.73,7.63A78.22,78.22,0,0,1,201,211.59a6,6,0,1,0,6.62-10,90.5,90.5,0,0,0-20.49-10.06A6,6,0,0,0,179.48,195.24Z"/><path class="cls-1" d="M234.29,259.4a75.87,75.87,0,0,1,1.94,11.41,6,6,0,0,0,6,5.47l.54,0a6,6,0,0,0,5.44-6.5,88.05,88.05,0,0,0-2.24-13.22,6,6,0,0,0-11.65,2.87Z"/></g></g></svg>