<?xml version="1.0" encoding="utf-8"?>
<!-- Generator: Adobe Illustrator 24.1.0, SVG Export Plug-In . SVG Version: 6.00 Build 0)  -->
<svg version="1.1" id="Layer_1" fill="#ff9954" xmlns="http://www.w3.org/2000/svg" xmlns:xlink="http://www.w3.org/1999/xlink" x="0px" y="0px"
	 viewBox="0 0 93.1 94" style="enable-background:new 0 0 93.1 94;" xml:space="preserve">
<path id="Layer_2_1_" d="M93.1,83l-4.2-41.6c-0.5-5.1-4.8-9-9.9-9h-8.9v-8.6C70.1,10.6,59.5,0,46.3,0S22.6,10.6,22.6,23.8v8.6h-8.4
	c-5.1,0-9.4,3.9-9.9,9L0.1,83C-0.5,88.5,3.5,93.4,9,93.9c0.3,0,0.7,0.1,1,0.1c1.1,0,2-0.9,2-2s-0.9-2-2-2c-3.3,0-6-2.7-6-6
	c0-0.2,0-0.4,0-0.6l4.2-41.6c0.3-3.1,2.9-5.4,6-5.4h8.4V47c0,1.1,0.9,2,2,2s2-0.9,2-2V36.4h39.5V47c0,1.1,0.9,2,2,2s2-0.9,2-2V36.4
	H79c3.1,0,5.7,2.3,6,5.4l4.2,41.6c0.3,3.3-2.1,6.2-5.4,6.6c-0.2,0-0.4,0-0.6,0c-1.1,0-2,0.9-2,2s0.9,2,2,2c5.5,0,10-4.5,10-10
	C93.1,83.6,93.1,83.3,93.1,83L93.1,83z M26.6,32.4v-8.6c0-11,8.8-19.8,19.7-19.8S66,12.8,66,23.7v8.6L26.6,32.4L26.6,32.4z"/>
</svg>
