<?xml version="1.0" encoding="utf-8"?>
<!-- Generator: Adobe Illustrator 24.0.1, SVG Export Plug-In . SVG Version: 6.00 Build 0)  -->
<svg version="1.1" id="Слой_1" xmlns="http://www.w3.org/2000/svg" xmlns:xlink="http://www.w3.org/1999/xlink" x="0px" y="0px"
	 viewBox="0 0 471.5 121.4" style="enable-background:new 0 0 471.5 121.4;" xml:space="preserve">
<style type="text/css">
	.st0{fill:#FFA35F;}
	.st1{fill:#0F1D5B;}
</style>
<g id="Layer_2">
	<g id="Layer_1-2">
		<path class="st0" d="M1.3,7.3C1.3,7.7,1,8,0.7,8C0.3,8,0,7.7,0,7.4c0,0,0,0,0,0C0,7,0.3,6.7,0.6,6.7c0,0,0,0,0,0
			C1,6.7,1.3,7,1.3,7.3C1.3,7.3,1.3,7.3,1.3,7.3z"/>
		<path class="st1" d="M11,0.1C8.6,0.1,6.7,2,6.7,4.4S8.6,8.8,11,8.8c1.1,0,2.1-0.4,2.9-1.2V6.2c-1,1.6-3,2.1-4.7,1.2
			C8.8,7.1,8.3,6.6,8,6.1l6.2-4l0,0l0.3-0.2C13.7,0.8,12.4,0.1,11,0.1z M7.6,4.4C7.6,2.5,9.1,1,11,1c0,0,0,0,0,0l0,0
			c0.8,0,1.5,0.3,2.1,0.7L7.7,5.2C7.6,4.9,7.6,4.7,7.6,4.4z"/>
		<path class="st1" d="M34.2,2.1l0.3-0.2c-0.8-1.1-2.1-1.8-3.5-1.8c-2.4,0-4.3,1.9-4.3,4.3s1.9,4.3,4.3,4.3c1.1,0,2.1-0.4,2.9-1.2
			V6.2c-1,1.6-3,2.1-4.7,1.2c-0.5-0.3-1-0.8-1.3-1.3L34.2,2.1L34.2,2.1z M27.6,4.4c0-1.9,1.5-3.4,3.4-3.4c0.8,0,1.5,0.3,2.1,0.7
			l-5.4,3.5C27.7,5,27.6,4.7,27.6,4.4z"/>
		<path class="st1" d="M16.2,1.6V0.3h-0.9v8.4h0.9V3.8c0.2-1.5,1.3-2.6,2.8-2.9L19.2,0C18,0.1,16.9,0.7,16.2,1.6z"/>
		<path class="st1" d="M26.2,0.2l-2.9,6.5l-2.9-6.5l-0.9,0.4l3.8,8.2L27,0.6L26.2,0.2z"/>
		<path class="st1" d="M3.8,4c-1-0.3-1.7-0.4-2.1-0.9S1.5,1.8,2.1,1.3s2-0.5,3,0.5L5.7,1C5.2,0.6,4.5,0.1,3.3,0.1
			C2.6,0.1,2,0.3,1.4,0.7c0,0-0.8,0.6-0.8,1.7c0,0.6,0.3,1.2,0.7,1.6c0.4,0.3,0.8,0.5,1.3,0.6c0.8,0.2,1.8,0.4,2.1,1S5,7.1,4.4,7.5
			S3.6,8,3.2,8C2.6,8,2,7.8,1.5,7.4l0,0c0,0.4-0.3,0.7-0.6,0.8C1,8.3,1.8,8.9,3.2,8.9c1.1,0,2.1-0.6,2.5-1.6c0.2-0.5,0.3-1.3,0-2
			C5.4,4.7,4.8,4.3,3.8,4z"/>
	</g>
</g>
</svg>
