<svg xmlns="http://www.w3.org/2000/svg" viewBox="0 0 312 312"><defs><style>.cls-1{fill:#3dafb2;}</style></defs><g id="Layer_2" data-name="Layer 2"><g id="Layer_1-2" data-name="Layer 1"><path class="cls-1" d="M130.21,78.76a38,38,0,1,0-38-38A38.07,38.07,0,0,0,130.21,78.76Zm0-64.06a26,26,0,1,1-26,26A26.06,26.06,0,0,1,130.21,14.7Z"/><path class="cls-1" d="M306,125.49H282V6a6,6,0,0,0-12,0V125.49H154.09a65.09,65.09,0,0,0-1.8-9.08c-4.11-15.06-12.95-27-24.89-33.51a15.71,15.71,0,0,0-18.57,2.65L75.51,118.88a.94.94,0,0,0-.1.1l-6.51,6.51H42V6.5a6,6,0,0,0-12,0v119H6a6,6,0,0,0,0,12H58.08a28.55,28.55,0,0,0,4.28,34.84l23.91,23.91-15.49,43L55.08,268.9a26.51,26.51,0,1,0,46.85,24.83l15.71-29.65a12.5,12.5,0,0,0,.66-1.48L133.62,220h41v18.54a27,27,0,0,0,4.69,15.19A52.57,52.57,0,0,0,132,306a6,6,0,0,0,6,6H266.67a6,6,0,0,0,6-6,52.47,52.47,0,0,0-49.42-52.4A26.22,26.22,0,0,0,227.64,239V191a24,24,0,0,0-24-24H144.61c.77-1.25,1.52-2.5,2.25-3.73l.26-.44a56,56,0,0,0,7.4-25.36H306a6,6,0,0,0,0-12ZM66,152.18a16.38,16.38,0,0,1,4.83-11.67l13.09-13.09v0L117.32,94a3.62,3.62,0,0,1,4.31-.61c9.06,5,15.84,14.24,19.09,26.14,3.58,13.13,2.12,27-3.91,37.14l-.26.45c-1.69,2.83-3.28,5.5-5.11,8-.1.13-.28.4-.52.76l-24.09-24.09a6,6,0,0,0-8.48,8.48l27,27,4.24,4.23h0a14.53,14.53,0,0,1-1.63,21.92A14.59,14.59,0,0,1,109,202L97.45,190.45l-26.6-26.61A16.36,16.36,0,0,1,66,152.18Zm41,106.28L91.33,288.11a14.51,14.51,0,0,1-12.84,7.72,14.27,14.27,0,0,1-6.78-1.7,14.54,14.54,0,0,1-6-19.62L81.4,244.86a10.29,10.29,0,0,0,.65-1.48l13.6-37.76,4.88,4.87c.34.34.68.66,1,1l.37.32.71.59.46.36.65.49c.17.12.34.24.52.35l.63.43.55.34.63.37.58.32.63.33.6.29c.22.11.43.2.65.29s.4.19.61.27l.66.25.62.24.72.23.93.28.9.24.61.13.73.16.61.1.74.12.6.07.76.08.59,0,.8,0h1.19c.49,0,1,0,1.48-.06l.4,0h.06ZM260.24,300H144.47a40.56,40.56,0,0,1,40.05-34.49h35.67A40.53,40.53,0,0,1,260.24,300Zm-44.6-109v48a14.53,14.53,0,0,1-14.51,14.52h-.35a14.81,14.81,0,0,1-14.17-14.92V214a6,6,0,0,0-6-6H140.2l.11-.16c.39-.51.77-1,1.12-1.56l.14-.23c.34-.52.65-1,1-1.58,0-.06.07-.12.1-.19.31-.56.58-1.13.85-1.71l.15-.35c.25-.58.48-1.17.69-1.76,0-.1.06-.2.1-.3.2-.59.38-1.19.53-1.8,0,0,0-.08,0-.12.16-.63.28-1.27.4-1.91l.06-.36c.1-.63.18-1.26.23-1.9,0-.11,0-.23,0-.35.05-.67.08-1.34.08-2s0-1.41-.09-2.11c0-.19,0-.39-.05-.58-.06-.56-.13-1.11-.22-1.66,0-.15,0-.3-.07-.45q-.19-1-.45-2c0-.15-.09-.29-.13-.44-.15-.53-.32-1.06-.5-1.58-.06-.18-.12-.36-.19-.53a25.63,25.63,0,0,0-1.54-3.37h61.13A12,12,0,0,1,215.64,191Z"/></g></g></svg>