<svg xmlns="http://www.w3.org/2000/svg" viewBox="0 0 72.02 94.14"><defs><style>.cls-1{fill:#0f1d5b;}</style></defs><g id="Layer_2" data-name="Layer 2"><g id="Layer_1-2" data-name="Layer 1"><path class="cls-1" d="M70,0H32.13L32,0h-.1a2.42,2.42,0,0,0-.46.13l-.1,0a1.94,1.94,0,0,0-.43.27L.73,25.26a2.05,2.05,0,0,0-.37.41l-.08.13a1.84,1.84,0,0,0-.17.38c0,.05,0,.09,0,.13A2,2,0,0,0,0,26.8V92.14a2,2,0,0,0,2,2H70a2,2,0,0,0,2-2V2A2,2,0,0,0,70,0ZM30.13,6.24V24.8H7.58ZM68,90.14H4V28.8H32.13a2,2,0,0,0,2-2V4H68Z"/><path class="cls-1" d="M12.32,47.52a2,2,0,0,0,0,4H59.7a2,2,0,0,0,0-4Z"/><path class="cls-1"  d="M59.7,57.32H12.32a2,2,0,0,0,0,4H59.7a2,2,0,0,0,0-4Z"/><path class="cls-1" d="M36,67.12H12.32a2,2,0,1,0,0,4H36a2,2,0,0,0,0-4Z"/></g></g></svg>