<svg xmlns="http://www.w3.org/2000/svg" viewBox="0 0 311.46 291.35"><defs><style>.cls-1{fill:#efc02b;}</style></defs><g id="Layer_2" data-name="Layer 2"><g id="Layer_1-2" data-name="Layer 1"><path class="cls-1" d="M261.56,214.24a38,38,0,1,0-38-38A38,38,0,0,0,261.56,214.24Zm0-63.93a26,26,0,1,1-26,26A26,26,0,0,1,261.56,150.31Z"/><path class="cls-1" d="M306.61,229.68A25.37,25.37,0,0,0,271.15,224l-14.31,10.38-45.21-31.33a24.49,24.49,0,0,0-15.1-4.31l-7.86.4h0l-7.36.37a26.47,26.47,0,0,0-4.07-32.18,3.07,3.07,0,0,0-.26-.25l-20-17.73q.49-.73,1-1.5l.28-.42c2.13-2.9,3.91-5.89,5.63-8.78l.33-.56c7.65-12.85,9.58-30.18,5.16-46.36-4.1-15-12.93-26.91-24.85-33.44A15.71,15.71,0,0,0,126,61L92.72,94.22l-.12.12-13,13a28.45,28.45,0,0,0,0,40.23l23.85,23.86-7.81,21.71a6,6,0,1,0,11.29,4.06L113,180.33l23.8,21.44,0,0L22.54,207.6a22.78,22.78,0,0,0-16.17,8A26.29,26.29,0,0,0,0,233c0,14,10.61,25.4,23.65,25.4H198.56a12.3,12.3,0,0,1,5.73,1.41l59,30.9a6,6,0,0,0,6.53-.63l32.06-25.6a25.39,25.39,0,0,0,4.69-34.76ZM83.26,127.47a16.34,16.34,0,0,1,4.82-11.63l46.37-46.38a3.62,3.62,0,0,1,4.29-.61c9,5,15.8,14.21,19,26.08,3.58,13.1,2.12,26.95-3.89,37.06l-.34.57c-1.65,2.78-3.21,5.4-5,7.84-.1.13-.28.4-.51.75l-24-24a6,6,0,0,0-8.49,8.49l26.9,26.9.08.06.19.19L168.87,176a14.47,14.47,0,0,1-.11,20.34,16.69,16.69,0,0,1-1.62,1.39,14.53,14.53,0,0,1-18.85-1.39l-3.1-3.11L145,193,114.5,165.54,88.08,139.1A16.34,16.34,0,0,1,83.26,127.47ZM294.43,255.06l-29,23.16-55.57-29.09a24.54,24.54,0,0,0-11.3-2.77H23.65c-6.42,0-11.65-6-11.65-13.4a14.34,14.34,0,0,1,3.43-9.47,10.94,10.94,0,0,1,7.72-3.91l166.13-8.41h0l7.85-.4a12.47,12.47,0,0,1,7.66,2.18l48.71,33.76a6,6,0,0,0,6.95-.07l17.75-12.89a13.4,13.4,0,0,1,16.23,21.31Z"/><path class="cls-1" d="M206.65,270.14H6a6,6,0,0,0,0,12H206.65a6,6,0,0,0,0-12Z"/><path class="cls-1" d="M190.4,75.93a38,38,0,1,0-38-38A38,38,0,0,0,190.4,75.93Zm0-63.93a26,26,0,1,1-26,26A26,26,0,0,1,190.4,12Z"/></g></g></svg>