<svg xmlns="http://www.w3.org/2000/svg" viewBox="0 0 312 282">
    <defs>
        <style>.cls-1{fill:#e0a960;}</style>
    </defs>
    <g id="Layer_2" data-name="Layer 2">
        <g id="Layer_1-2" data-name="Layer 1">
            <path class="cls-1"
                  d="M112.2,200,82.49,189.93l29.13-86L141.33,114a6,6,0,0,0,7.6-3.76l9.68-28.56a6,6,0,0,0-3.76-7.61l-5.73-1.94,7.75-22.9a6,6,0,0,0-3.75-7.61l-18.29-6.19L141.43,16a6,6,0,0,0-3.76-7.61L113.85.32a6,6,0,0,0-7.6,3.76l-6.6,19.46-18.28-6.2a6,6,0,0,0-7.61,3.76L66,44l-5.74-2a6,6,0,0,0-7.6,3.76L43,74.37A6,6,0,0,0,46.74,82L76.44,92,47.31,178,17.61,168A6,6,0,0,0,10,171.71L.32,200.28a6,6,0,0,0,3.75,7.61l5.74,2L2.06,232.73a6,6,0,0,0,3.75,7.61l18.29,6.2L17.5,266a6,6,0,0,0,3.76,7.61l23.81,8.07A6.2,6.2,0,0,0,47,282a6,6,0,0,0,5.68-4.08l6.6-19.46,18.28,6.19a6.1,6.1,0,0,0,1.93.32,6,6,0,0,0,5.68-4.08L92.93,238l5.73,1.94a6,6,0,0,0,4.59-.3,6,6,0,0,0,3-3.46L116,207.61A6,6,0,0,0,112.2,200Zm-69,68.39-12.45-4.22,4.67-13.78,6.23,2.11,6.22,2.11Zm32.49-17L45.54,241.13l-11.91-4h0l-18.28-6.2,5.83-17.21,60.38,20.46Zm40-237.75,12.45,4.22-4.67,13.78L111,27.39Zm-32.49,17,27.47,9.3,14.63,5h0l18.27,6.19-5.83,17.22L107.56,58.08,77.37,47.85ZM62.1,55.34l83.22,28.2-5.83,17.19L56.27,72.54ZM87.81,95.89l8.69,3,3.76,1.27-29.13,86-3.76-1.27-8.69-2.95Zm9,130.76-83.22-28.2,5.83-17.21,83.22,28.2Z"/>
            <path class="cls-1"
                  d="M286,217.81a6,6,0,0,0-7.26,4.4,58.7,58.7,0,0,1-2.23,7.08,6,6,0,0,0,3.43,7.76,5.88,5.88,0,0,0,2.17.41,6,6,0,0,0,5.59-3.83,70.2,70.2,0,0,0,2.7-8.56A6,6,0,0,0,286,217.81Z"/>
            <path class="cls-1"
                  d="M278.18,192.43a58.06,58.06,0,0,1,2.16,13.18,6,6,0,0,0,6,5.72h.28a6,6,0,0,0,5.72-6.28,70.05,70.05,0,0,0-2.61-15.9,6,6,0,1,0-11.54,3.29Z"/>
            <path class="cls-1"
                  d="M258.3,148.24a6,6,0,0,0-6.18,10.28,58.55,58.55,0,0,1,19.8,19.66,6,6,0,0,0,5.13,2.88,5.93,5.93,0,0,0,3.12-.88,6,6,0,0,0,2-8.24A70.56,70.56,0,0,0,258.3,148.24Z"/>
            <path class="cls-1"
                  d="M251.9,128V102.79a6,6,0,0,0-6-6H198.67a6,6,0,0,0-6,6v25.26a6,6,0,0,0,6,6,6.25,6.25,0,0,0,1.71-.24,77.1,77.1,0,0,1,21.92-3.15,78,78,0,0,1,21.91,3.13A6,6,0,0,0,251.9,128Zm-12-7.64a90.61,90.61,0,0,0-35.23,0V108.79H239.9Z"/>
            <path class="cls-1"
                  d="M277.2,137.46V92.17a22.65,22.65,0,0,0-22.63-22.63H190a22.65,22.65,0,0,0-22.63,22.63v45.29a89.67,89.67,0,0,0,2,143.38A6,6,0,0,0,173,282h98.66a6,6,0,0,0,3.54-1.16,89.67,89.67,0,0,0,2-143.38ZM269.62,270H175a77.68,77.68,0,0,1,1.92-124.67,6,6,0,0,0,2.5-4.87V92.17A10.64,10.64,0,0,1,190,81.54h64.57A10.64,10.64,0,0,1,265.2,92.17v48.29a6,6,0,0,0,2.5,4.87A77.68,77.68,0,0,1,269.62,270Z"/>
        </g>
    </g>
</svg>
