<?xml version="1.0" encoding="utf-8"?>

<svg 
version="1.1" id="Layer_1" xmlns="http://www.w3.org/2000/svg" xmlns:xlink="http://www.w3.org/1999/xlink" x="0px" y="0px"
	 viewBox="0 0 94.1 94.1" style="enable-background:new 0 0 94.1 94.1;" xml:space="preserve">
<path id="Layer_2_1_" d="M80.5,80.1c18.1-18.3,18.1-47.8,0-66.1c-0.1-0.2-0.2-0.3-0.4-0.4C61.8-4.5,32.3-4.5,14,13.6
	c-0.1,0.1-0.1,0.1-0.2,0.2c-0.1,0.1-0.1,0.1-0.2,0.2c-18.2,18.3-18.2,47.8,0,66.2c0.1,0.1,0.2,0.3,0.4,0.4
	c18.3,18.1,47.8,18.1,66.2,0c0.1-0.1,0.1-0.1,0.2-0.2C80.4,80.3,80.5,80.2,80.5,80.1z M78.9,76.1l-29-29l29-29
	C93.9,34.5,93.9,59.6,78.9,76.1z M76.1,15.3l-29,29l-29-29C34.5,0.2,59.6,0.2,76.1,15.3z M15.3,18.1l29,29l-29,29
	C0.2,59.7,0.2,34.5,15.3,18.1z M18.1,78.9l29-29l29,29C59.7,93.9,34.5,93.9,18.1,78.9z"/>
</svg>
