<svg xmlns="http://www.w3.org/2000/svg" viewBox="0 0 263.09 300.01"><defs><style>.cls-1{fill:#6093e0;}</style></defs><g id="Layer_2" data-name="Layer 2"><g id="Layer_1-2" data-name="Layer 1"><path class="cls-1" d="M210.06,3.2a74.21,74.21,0,0,0-43.35.08l-1.66.53-.36.11-.37.13c-2.36.77-4.69,1.56-6.94,2.34-9.1,3.15-17.69,6.12-27.19,6.14S111.5,10,101.7,7.22C93.52,4.94,85.07,2.57,76.26,1.74,54.16-.34,30,8,16.24,22.37A49.1,49.1,0,0,0,6.29,37.42C2.41,46.74,1.22,56.5.63,64c-1.57,19.67-.21,40.9,4.3,66.8A470.62,470.62,0,0,0,28.56,216c9.44,25.19,20.21,51.62,38.8,73.45,3.57,4.19,8.08,8.62,14.41,9.67,7.34,1.21,15.12-2.67,20.81-10.39,7.36-10,9.76-22.36,10.93-30.83.44-3.16.8-6.45,1.18-9.93,1.63-14.93,3.48-31.86,12.1-41.9,1.94-2.25,4.75-3.5,6.69-3,1.75.49,3.6,2.43,5.47,5.78,6.34,11.29,8,24.86,9.1,37.8.19,2.19.33,4.41.48,6.75.72,11.23,1.53,24,8.59,34.58,4.29,6.46,11.72,12,19.9,12a18,18,0,0,0,5.12-.75c6.72-2,11-7.4,14.51-12.92,17.52-27.19,29.24-58.56,40.56-88.9l.77-2c13.89-37.21,21.68-68.74,24.49-99.24C264.63,72.7,261.09,52.7,252,36.73A73.93,73.93,0,0,0,210.06,3.2Zm40.46,91.86c-2.71,29.41-10.27,60-23.78,96.14l-.77,2c-11.1,29.74-22.58,60.49-39.41,86.6-2.31,3.59-4.86,7-7.84,7.92-4,1.19-8.88-2.32-11.61-6.42-5.28-7.94-5.92-18-6.61-28.7-.14-2.31-.3-4.7-.5-7-1.24-14.24-3.08-29.26-10.58-42.63-3.55-6.33-7.72-10.08-12.74-11.47a15.47,15.47,0,0,0-4.17-.56,20,20,0,0,0-14.82,7.26c-11,12.86-13.11,31.75-14.93,48.41-.37,3.4-.73,6.61-1.14,9.6-1.59,11.55-4.27,19.36-8.69,25.35-2.18,3-5.9,6.22-9.2,5.67-2.51-.41-5.07-3.07-7.23-5.61-17.33-20.36-27.64-45.69-36.71-69.88-10.79-28.82-18.33-56-23-83-4.33-24.88-5.65-45.15-4.16-63.78.52-6.58,1.54-15.13,4.78-22.89a37.12,37.12,0,0,1,7.54-11.38c11.4-11.91,31.58-18.73,50.23-17,7.73.73,15.31,2.85,23.33,5.09,10.12,2.83,20.58,5.75,31.63,5.75h.11c.59,0,1.18,0,1.77,0a49,49,0,0,1-7.82,4c-9,3.45-16,4.08-22.9,4.68-1.73.15-3.41.3-5.07.49a6,6,0,0,0,.67,12,5.27,5.27,0,0,0,.68,0c1.56-.17,3.14-.31,4.77-.46,7.32-.64,15.61-1.37,26.16-5.43,7.5-2.89,14.83-8.19,21.92-13.33,6.47-4.68,12.59-9.11,17.82-11,.68-.22,1.36-.46,2-.67a61.07,61.07,0,0,1,71.28,28C249.43,56.48,252.45,74.1,250.52,95.06Z"/><path class="cls-1" d="M226.45,109.62a6,6,0,0,0-7,4.78,147.26,147.26,0,0,1-7.18,25.17,6,6,0,0,0,11.21,4.29,159.62,159.62,0,0,0,7.76-27.23A6,6,0,0,0,226.45,109.62Z"/><path class="cls-1" d="M209.93,31.75a54.68,54.68,0,0,0-33.6-6A6,6,0,1,0,178,37.59a42.56,42.56,0,0,1,26.15,4.69,41.67,41.67,0,0,1,18.07,19.38c.88,2,3.54,8,2.76,24.27a6,6,0,0,0,5.71,6.28H231a6,6,0,0,0,6-5.72c.91-19.13-2.62-27.09-3.78-29.7A53.69,53.69,0,0,0,209.93,31.75Z"/></g></g></svg>