<svg xmlns="http://www.w3.org/2000/svg" viewBox="0 0 310.03 312"><defs><style>.cls-1{fill:#3cb37e;}</style></defs><g id="Layer_2" data-name="Layer 2"><g id="Layer_1-2" data-name="Layer 1"><path class="cls-1" d="M150.32,35.78a21,21,0,0,1,21.48,6.41,6,6,0,0,0,9-7.91,33,33,0,0,0-33.77-10,6,6,0,0,0,3.26,11.55Z"/><path class="cls-1" d="M205.92,262.69a6,6,0,0,0-7.31,4.32A44,44,0,0,1,112,256V200H56a44,44,0,0,1,0-88h56V56a44,44,0,0,1,88,0v8.85a6,6,0,1,0,12,0V56a56,56,0,0,0-112,0v44H56a56,56,0,0,0,0,112h44v44a56,56,0,0,0,110.24,14A6,6,0,0,0,205.92,262.69Z"/><path class="cls-1" d="M111.21,166.52A28.78,28.78,0,1,0,140,137.75,28.8,28.8,0,0,0,111.21,166.52Zm45.55,0A16.78,16.78,0,1,1,140,149.75,16.8,16.8,0,0,1,156.76,166.52Z"/><path class="cls-1" d="M281.26,137.75A28.78,28.78,0,1,0,310,166.52,28.8,28.8,0,0,0,281.26,137.75Zm0,45.55A16.78,16.78,0,1,1,298,166.52,16.8,16.8,0,0,1,281.26,183.3Z"/><path class="cls-1" d="M231.55,130.27A28.78,28.78,0,1,0,221,91,28.6,28.6,0,0,0,231.55,130.27ZM231.41,97a16.78,16.78,0,1,1,6.14,22.91A16.68,16.68,0,0,1,231.41,97Z"/><path class="cls-1" d="M189.69,130.27a28.79,28.79,0,1,0-14.34,3.85A28.63,28.63,0,0,0,189.69,130.27Zm-28.92-16.54a16.77,16.77,0,1,1,22.92,6.14A16.66,16.66,0,0,1,160.77,113.73Z"/><path class="cls-1" d="M253.06,195.46l-5.8-3.35a16.46,16.46,0,0,1-8.21-14.21v-6.77a28.41,28.41,0,1,0-56.81,0v6.7A16.44,16.44,0,0,1,174,192l-5.86,3.39a28.4,28.4,0,0,0,28.4,49.2l5.81-3.36a16.45,16.45,0,0,1,16.4,0l5.87,3.39a28.4,28.4,0,1,0,28.4-49.2Zm0,32.8a16.42,16.42,0,0,1-22.41,6l-5.87-3.39a28.5,28.5,0,0,0-28.4,0l-5.81,3.35a16.41,16.41,0,0,1-22.41-6,16.42,16.42,0,0,1,6-22.41l5.86-3.39a28.47,28.47,0,0,0,14.2-24.6v-6.7a16.41,16.41,0,1,1,32.81,0v6.77a28.49,28.49,0,0,0,14.21,24.6l5.8,3.35A16.43,16.43,0,0,1,253.07,228.26Z"/></g></g></svg>