<?xml version="1.0" encoding="utf-8"?>
<!-- Generator: Adobe Illustrator 24.1.0, SVG Export Plug-In . SVG Version: 6.00 Build 0)  -->
<svg version="1.1" id="Layer_1" fill="#ff9954" xmlns="http://www.w3.org/2000/svg" xmlns:xlink="http://www.w3.org/1999/xlink" x="0px" y="0px"
	 viewBox="0 0 86.7 94.1" style="enable-background:new 0 0 86.7 94.1;" xml:space="preserve">
<path id="Layer_2_1_" d="M56.7,60.8V55c6-6.3,9.4-14.7,9.4-23.4v-8.9C66.1,10.2,55.9,0,43.4,0S20.7,10.2,20.7,22.7v8.9
	c0,8.7,3.3,17.1,9.3,23.4v5.8C13.2,61.5,0,75.3,0,92.1v2h86.7v-2C86.7,75.3,73.5,61.5,56.7,60.8z M4.1,90.1
	c1.1-14.3,13-25.4,27.3-25.4H34V53.4l-0.6-0.6c-5.6-5.6-8.8-13.2-8.8-21.2v-8.9C24.7,12.4,33,4,43.3,4S62,12.4,62,22.7v8.9
	c0,7.9-3.1,15.6-8.8,21.2l-0.6,0.6v11.4h2.7c14.4,0,26.3,11.1,27.4,25.4H4.1V90.1z"/>
</svg>
