<?xml version="1.0" standalone="no"?>
<!DOCTYPE svg PUBLIC "-//W3C//DTD SVG 1.1//EN" "http://www.w3.org/Graphics/SVG/1.1/DTD/svg11.dtd" >
<svg xmlns="http://www.w3.org/2000/svg" xmlns:xlink="http://www.w3.org/1999/xlink" version="1.1">
<metadata>
Created by FontForge 20200427 at Thu Feb  7 21:41:38 2002
 By www
Copyright (c) 1988, 1994, 2001 Adobe Systems Incorporated.  All Rights Reserved.
</metadata>
<defs>
<font id="ITCKabelStd-Book" horiz-adv-x="500" >
  <font-face 
    font-family="ITC Kabel Std Book"
    font-weight="400"
    font-stretch="normal"
    units-per-em="1000"
    panose-1="2 13 4 2 2 2 4 2 9 4"
    ascent="724"
    descent="-276"
    x-height="502"
    cap-height="702"
    bbox="-167 -250 1000 924"
    underline-thickness="50"
    underline-position="-100"
    unicode-range="U+0020-FB02"
  />
<missing-glyph 
d="M0 0v700h500v-700h-500zM250 395l170 255h-340zM280 350l170 -255v510zM80 50h340l-170 255zM50 605v-510l170 255z" />
    <glyph glyph-name="fi" unicode="fi" 
d="M37 502h54v52q0 53 15 88t44 52t60 23t74 6l15 -58q-52 0 -81 -5t-45 -20.5t-20 -36t-4 -61.5v-40h143v-58h-143v-444l-58 -12v456h-68zM429 0l-58 -12v514l58 12v-514zM400 723l46 -52l-46 -52l-46 52z" />
    <glyph glyph-name="fl" unicode="fl" 
d="M37 502h54v52q0 53 15 88t44 52t60 23t74 6l15 -58q-52 0 -81 -5t-45 -20.5t-20 -36t-4 -61.5v-40h143v-58h-143v-444l-58 -12v456h-68zM429 723v-723l-58 -12v723z" />
    <glyph glyph-name=".notdef" 
d="M0 0v700h500v-700h-500zM250 395l170 255h-340zM280 350l170 -255v510zM80 50h340l-170 255zM50 605v-510l170 255z" />
    <glyph glyph-name=".null" horiz-adv-x="0" 
 />
    <glyph glyph-name="nonmarkingreturn" horiz-adv-x="333" 
 />
    <glyph glyph-name="space" unicode=" " horiz-adv-x="250" 
 />
    <glyph glyph-name="exclam" unicode="!" horiz-adv-x="222" 
d="M148 723l-10 -547l-57 -6v542zM53 53l52 59l52 -59l-52 -59z" />
    <glyph glyph-name="quotedbl" unicode="&#x22;" horiz-adv-x="333" 
d="M78 415v271h58v-271h-58zM198 415v271h58v-271h-58z" />
    <glyph glyph-name="numbersign" unicode="#" 
d="M463 270l-3 -52h-100l-31 -218h-58l31 218h-129l-30 -218h-59l31 218h-106l3 52h110l20 145h-105l3 52h109l31 219h58l-31 -219h129l30 219h59l-31 -219h97l-3 -52h-101l-21 -145h97zM329 415h-129l-20 -145h129z" />
    <glyph glyph-name="dollar" unicode="$" 
d="M255 98v225q-162 26 -162 160q0 68 46.5 111t115.5 46v67l44 16v-83q93 -10 145 -71l-33 -36q-52 52 -112 55v-213q68 -10 115 -51t47 -107q0 -72 -44.5 -116.5t-117.5 -54.5v-101l-44 -9v110q-51 2 -97.5 26.5t-77.5 64.5l42 36q52 -70 133 -75zM255 381v207
q-108 -3 -108 -100t108 -107zM299 317v-219q51 4 79.5 31t28.5 77q0 97 -108 111z" />
    <glyph glyph-name="percent" unicode="%" horiz-adv-x="833" 
d="M433 170q0 71 50 121t121 50q70 0 120.5 -50.5t50.5 -120.5q0 -71 -50 -120.5t-121 -49.5t-121 49.5t-50 120.5zM727 170q0 50 -36.5 86.5t-86.5 36.5q-51 0 -87 -36.5t-36 -86.5q0 -51 36 -86.5t87 -35.5t87 35.5t36 86.5zM579 686h51l-397 -702h-49l337 580l-2 2
q-27 -16 -42 -21t-43 -5q-31 0 -55 19l-2 -2q7 -17 7 -43q0 -70 -50 -120.5t-121 -50.5t-121 50t-50 121t50 121.5t121 50.5q74 0 123 -54q22 -18 32 -26.5t33 -19t44 -10.5q40 0 71.5 30.5t62.5 79.5zM336 514q0 51 -36.5 87.5t-86.5 36.5q-51 0 -87 -36.5t-36 -87.5
t36 -87t87 -36q50 0 86.5 36t36.5 87z" />
    <glyph glyph-name="ampersand" unicode="&#x26;" horiz-adv-x="611" 
d="M274 384l144 -176l125 122l39 -38l-128 -125l120 -147l-47 -28l-113 136q-11 -10 -43.5 -42.5t-50 -47.5t-49 -30.5t-63.5 -15.5q-73 0 -121.5 47.5t-48.5 121.5q0 23 6.5 45.5t13 37t24 35t25.5 29t32.5 31.5t31.5 29l26 26q-68 83 -68 158q0 69 41 109.5t108 40.5
q53 0 94 -35.5t41 -88.5q0 -30 -16 -60t-32 -47.5t-48.5 -47t-42.5 -39.5zM380 172l-149 178q-10 -11 -54.5 -50.5t-62.5 -70t-18 -71.5q0 -46 32 -77t79 -31q32 0 61.5 19t65 56.5t46.5 46.5zM241 425q3 2 20 16t23 19t20.5 18.5t20.5 23t14.5 23t12 27t3.5 28.5
q0 30 -24 50t-58 20q-43 0 -64.5 -28t-21.5 -72q0 -33 16 -67.5t38 -57.5z" />
    <glyph glyph-name="quotesingle" unicode="'" horiz-adv-x="222" 
d="M82 415v271h58v-271h-58z" />
    <glyph glyph-name="parenleft" unicode="(" horiz-adv-x="333" 
d="M258 702l16 -48q-208 -152 -208 -380q0 -242 214 -377l-24 -44q-115 74 -179 182.5t-64 241.5q0 134 64.5 242.5t180.5 182.5z" />
    <glyph glyph-name="parenright" unicode=")" horiz-adv-x="333" 
d="M75 -147l-16 48q208 152 208 380q0 242 -214 377l24 44q115 -74 179 -182.5t64 -241.5q0 -134 -64.5 -242.5t-180.5 -182.5z" />
    <glyph glyph-name="asterisk" unicode="*" horiz-adv-x="444" 
d="M68 630l129 -74v135l47 11v-147l119 70l34 -36l-136 -74l129 -68l-15 -44l-131 76v-140l-47 -12v152l-120 -71l-30 35l132 76l-125 67z" />
    <glyph glyph-name="plus" unicode="+" horiz-adv-x="600" 
d="M271 280v222h58v-222h222v-58h-222v-222h-58v222h-222v58h222z" />
    <glyph glyph-name="comma" unicode="," horiz-adv-x="250" 
d="M30 -184l84 256l75 11l-103 -267h-56z" />
    <glyph glyph-name="hyphen" unicode="-" horiz-adv-x="333" 
d="M294 278v-54h-255v54h255z" />
    <glyph glyph-name="period" unicode="." horiz-adv-x="250" 
d="M73 53l52 59l52 -59l-52 -59z" />
    <glyph glyph-name="slash" unicode="/" horiz-adv-x="278" 
d="M279 702l-229 -718h-50l229 718h50z" />
    <glyph glyph-name="zero" unicode="0" 
d="M31 343q0 51 12 109t36.5 116t69 96t101.5 38t101.5 -38t69 -96t36.5 -116t12 -109t-12 -109t-36.5 -116t-69 -96t-101.5 -38t-101.5 38t-69 96t-36.5 116t-12 109zM95 343q0 -38 8 -85t25 -97.5t49 -84.5t73 -34t73 34t49 84.5t25 97.5t8 85t-8 85t-25 97.5t-49 84.5
t-73 34t-73 -34t-49 -84.5t-25 -97.5t-8 -85z" />
    <glyph glyph-name="one" unicode="1" 
d="M259 -8v630l-179 -100l-18 43l259 158h2v-723z" />
    <glyph glyph-name="two" unicode="2" 
d="M29 0l213 224q7 7 35.5 36.5t39 41t32 39.5t30.5 46.5t17.5 46t8.5 53.5q0 69 -44.5 113t-113.5 44q-65 0 -109 -43t-44 -109q0 -69 41 -113t110 -55l-40 -49q-76 13 -125.5 72.5t-49.5 137.5q0 92 62 154.5t153 62.5q99 0 161.5 -64.5t62.5 -164.5q0 -99 -122 -223
l-188 -192h306l-10 -58h-426z" />
    <glyph glyph-name="three" unicode="3" 
d="M169 337v53q37 -2 69 2.5t63 17t49 39.5t18 66q0 59 -37.5 94t-94.5 35q-84 0 -154 -80l-41 40q52 53 93 75.5t104 22.5q81 0 137.5 -49t56.5 -129q0 -107 -109 -157q60 -23 94 -70.5t34 -110.5q0 -91 -65 -146.5t-158 -55.5q-66 0 -121 35.5t-84 95.5l52 33
q23 -48 62 -77t90 -29q70 0 115 39t45 111q0 44 -17 73.5t-49.5 44.5t-68 21t-83.5 6z" />
    <glyph glyph-name="four" unicode="4" 
d="M358 250h118l-10 -58h-108v-192l-64 -8v200h-293l355 531h2v-473zM98 250h196v301h-2z" />
    <glyph glyph-name="five" unicode="5" 
d="M16 87l45 41q71 -86 163 -86q71 0 118.5 49t47.5 120q0 73 -48 121.5t-121 48.5q-40 0 -70 -11t-70 -37v353h326l-15 -58h-247v-207q42 18 88 18q92 0 156.5 -67t64.5 -159q0 -103 -67.5 -166t-161.5 -63q-67 0 -124 27.5t-85 75.5z" />
    <glyph glyph-name="six" unicode="6" 
d="M97 225q0 -77 46 -130t116 -53q69 0 108 59.5t39 138.5q0 78 -40.5 131t-112.5 53q-75 0 -115.5 -58.5t-40.5 -140.5zM312 723l44 -37q-145 -132 -209 -250l2 -2q58 42 111 42q93 0 151.5 -72.5t58.5 -170.5q0 -106 -60.5 -177.5t-153.5 -71.5q-100 0 -161.5 74
t-61.5 180q0 121 87.5 262.5t191.5 222.5z" />
    <glyph glyph-name="seven" unicode="7" 
d="M471 686l-258 -686l-69 -8l243 636h-352l11 58h425z" />
    <glyph glyph-name="eight" unicode="8" 
d="M113 504q0 -57 42.5 -88.5t101.5 -31.5q57 0 94.5 35.5t37.5 91.5q0 61 -37.5 97t-96.5 36q-64 0 -103 -37t-39 -103zM30 191q0 58 39 106t95 62v2q-47 10 -81 54t-34 94q0 88 54 140.5t141 52.5t148 -49.5t61 -135.5q0 -52 -30.5 -93t-80.5 -63q58 -21 93 -68t35 -108
q0 -91 -64 -146t-155 -55q-94 0 -157.5 56.5t-63.5 150.5zM94 178q0 -59 47 -97.5t105 -38.5q67 0 113.5 40t46.5 109q0 63 -45.5 102t-110.5 39q-72 0 -114 -41.5t-42 -112.5z" />
    <glyph glyph-name="nine" unicode="9" 
d="M95 446q0 -78 40.5 -131t113.5 -53q75 0 115 58t40 140q0 78 -46 131t-115 53t-108.5 -59.5t-39.5 -138.5zM190 -37l-44 37q144 131 209 250l-2 2q-58 -42 -111 -42q-93 0 -152 72.5t-59 170.5q0 106 61 177.5t154 71.5q100 0 161 -74t61 -180q0 -121 -87 -262.5
t-191 -222.5z" />
    <glyph glyph-name="colon" unicode=":" horiz-adv-x="250" 
d="M73 53l52 59l52 -59l-52 -59zM73 313l52 59l52 -59l-52 -59z" />
    <glyph glyph-name="semicolon" unicode=";" horiz-adv-x="250" 
d="M-2 -184l82 256l75 11l-103 -267h-54zM73 313l52 59l52 -59l-52 -59z" />
    <glyph glyph-name="less" unicode="&#x3c;" horiz-adv-x="600" 
d="M554 54v-62l-508 232v54l508 232v-62l-436 -197z" />
    <glyph glyph-name="equal" unicode="=" horiz-adv-x="600" 
d="M551 379v-58h-502v58h502zM551 181v-58h-502v58h502z" />
    <glyph glyph-name="greater" unicode="&#x3e;" horiz-adv-x="600" 
d="M46 54l436 197l-436 197v62l508 -232v-54l-508 -232v62z" />
    <glyph glyph-name="question" unicode="?" horiz-adv-x="444" 
d="M258 197l-48 -12v122q0 30 15.5 51t37 35.5t43.5 30.5t37.5 45t15.5 70q0 52 -37.5 89t-89.5 37q-60 0 -92.5 -26t-61.5 -85l-50 27q64 142 194 142q81 0 138 -55.5t57 -136.5q0 -45 -16.5 -78.5t-39.5 -52.5t-46.5 -36.5t-40 -42t-16.5 -57.5v-67zM188 53l52 59l52 -59
l-52 -59z" />
    <glyph glyph-name="at" unicode="@" horiz-adv-x="800" 
d="M262 281q0 -45 24 -73t60 -28q62 0 109.5 76t47.5 148q0 37 -24 67t-54 30q-67 0 -115 -72.5t-48 -147.5zM534 473l23 62h56l-89 -278q-26 -80 12 -80q54 0 101 74t47 150q0 112 -78 180.5t-189 68.5q-129 0 -215 -91t-86 -220q0 -126 88.5 -214.5t215.5 -88.5
q72 0 139 32.5t109 89.5h55q-44 -81 -127 -127.5t-176 -46.5q-152 0 -257 105.5t-105 256.5q0 147 105.5 251.5t251.5 104.5q137 0 232 -85t95 -213q0 -112 -73 -194t-150 -82q-26 0 -43.5 16.5t-19.5 46.5h-2q-61 -63 -123 -63q-60 0 -97 42.5t-37 104.5q0 106 65.5 192
t164.5 86q75 0 107 -80z" />
    <glyph glyph-name="A" unicode="A" horiz-adv-x="667" 
d="M483 270h-294l-139 -286l-66 16l349 702h2l349 -702l-60 -14zM448 332l-114 229l-115 -229h229z" />
    <glyph glyph-name="B" unicode="B" 
d="M68 686h174q91 0 142.5 -44.5t51.5 -135.5q0 -106 -90 -151q57 -28 83.5 -68t26.5 -101q0 -186 -216 -186h-172v686zM130 317v-255h105q153 0 153 124q0 59 -35 95t-98 36h-125zM130 624v-245h94q74 0 112 33t38 93q0 56 -35 87.5t-89 31.5h-120z" />
    <glyph glyph-name="C" unicode="C" horiz-adv-x="556" 
d="M514 92l-9 -76q-69 -32 -129 -32q-142 0 -246 104t-104 255t104 255t246 104q60 0 129 -32l9 -76q-59 46 -143 46q-118 0 -197.5 -86.5t-79.5 -210.5t79.5 -210.5t197.5 -86.5q84 0 143 46z" />
    <glyph glyph-name="D" unicode="D" horiz-adv-x="611" 
d="M68 0v686h176q142 0 238.5 -97t96.5 -242q0 -147 -96 -247t-239 -100h-176zM130 624v-562h101q122 0 201 81t79 204q0 121 -72 199t-193 78h-116z" />
    <glyph glyph-name="E" unicode="E" 
d="M463 0h-389v686h371l12 -62h-321v-245h275v-62h-275v-255h338z" />
    <glyph glyph-name="F" unicode="F" horiz-adv-x="389" 
d="M74 686h292l12 -62h-242v-245h189v-62h-189v-317l-62 -8v694z" />
    <glyph glyph-name="G" unicode="G" horiz-adv-x="667" 
d="M620 372v-295q-121 -93 -249 -93q-144 0 -244.5 103.5t-100.5 260.5q0 144 99.5 249t259.5 105q56 0 119.5 -25.5t103.5 -64.5l-38 -48q-102 76 -184 76q-125 0 -208.5 -85.5t-83.5 -206.5q0 -124 83.5 -213t199.5 -89q93 0 181 67v197h-220l20 62h262z" />
    <glyph glyph-name="H" unicode="H" horiz-adv-x="667" 
d="M136 0l-62 -8v694l62 16v-323h394v307l62 16v-702l-62 -8v325h-394v-317z" />
    <glyph glyph-name="I" unicode="I" horiz-adv-x="222" 
d="M80 -8v694l62 16v-702z" />
    <glyph glyph-name="J" unicode="J" horiz-adv-x="389" 
d="M13 25l29 61q15 -17 41 -28.5t51 -11.5q118 0 118 150v490l62 16v-488q0 -115 -39 -172.5t-145 -57.5q-74 0 -117 41z" />
    <glyph glyph-name="K" unicode="K" 
d="M128 0l-62 -8v694l62 16v-334h7l290 334l70 -21l-275 -316l296 -343l-67 -30l-314 364h-7v-356z" />
    <glyph glyph-name="L" unicode="L" horiz-adv-x="389" 
d="M367 0h-293v686l62 16v-640h250z" />
    <glyph glyph-name="M" unicode="M" horiz-adv-x="778" 
d="M391 143l231 559h2l138 -702l-62 -8l-98 508h-2l-208 -516h-2l-216 516h-2l-94 -508l-62 8l140 702h2z" />
    <glyph glyph-name="N" unicode="N" horiz-adv-x="667" 
d="M534 151v535l62 12v-714h-2l-459 554h-2v-538l-62 -8v710h2l459 -551h2z" />
    <glyph glyph-name="O" unicode="O" horiz-adv-x="778" 
d="M389 702q148 0 255.5 -105t107.5 -254t-107.5 -254t-255.5 -105t-255.5 105t-107.5 254t107.5 254t255.5 105zM389 640q-120 0 -207.5 -88t-87.5 -209t87.5 -209t207.5 -88t207.5 88t87.5 209t-87.5 209t-207.5 88z" />
    <glyph glyph-name="P" unicode="P" horiz-adv-x="444" 
d="M127 230v-230l-62 -8v694h129q106 0 167.5 -59.5t61.5 -168.5q0 -110 -64.5 -169t-184.5 -59h-47zM127 624v-332h57q82 0 126.5 44t44.5 122q0 76 -41 121t-110 45h-77z" />
    <glyph glyph-name="Q" unicode="Q" horiz-adv-x="778" 
d="M731 -65l-129 119q-94 -70 -213 -70q-148 0 -255.5 105t-107.5 254t107.5 254t255.5 105t255.5 -105t107.5 -254q0 -143 -100 -246l130 -119zM507 230l96 -88q81 86 81 201q0 121 -88 209t-207 88t-207 -88t-88 -209t88 -209t207 -88q91 0 164 53l-97 89z" />
    <glyph glyph-name="R" unicode="R" horiz-adv-x="444" 
d="M130 0l-62 -8v694h138q86 0 143 -56t57 -145q0 -78 -43.5 -130.5t-119.5 -65.5l210 -264l-63 -33l-256 335h-4v-327zM130 624v-285h86q60 0 91 40t31 106q0 53 -34.5 96t-86.5 43h-87z" />
    <glyph glyph-name="S" unicode="S" 
d="M34 104l48 38q32 -50 72 -73t98 -23q65 0 105.5 36t40.5 100q0 53 -36.5 84t-88 46t-103 32.5t-88 57.5t-36.5 106q0 90 61.5 142t153.5 52q51 0 99 -22t82 -60l-38 -46q-37 33 -69.5 49.5t-73.5 16.5q-64 0 -105.5 -33t-41.5 -95q0 -34 19.5 -58.5t50.5 -38.5
t68.5 -25.5t75 -26t68.5 -34.5t50.5 -56t19.5 -85q0 -92 -61 -148t-154 -56q-147 0 -217 120z" />
    <glyph glyph-name="T" unicode="T" horiz-adv-x="444" 
d="M253 624v-624l-62 -8v632h-190l14 62h419v-62h-181z" />
    <glyph glyph-name="U" unicode="U" horiz-adv-x="611" 
d="M546 702v-485q0 -109 -64.5 -171t-175.5 -62t-175.5 62t-64.5 171v469l62 16v-487q0 -63 47 -116t131 -53q81 0 129.5 55t48.5 133v452z" />
    <glyph glyph-name="V" unicode="V" horiz-adv-x="611" 
d="M301 138l268 564l65 -16l-332 -702h-2l-318 702l65 16z" />
    <glyph glyph-name="W" unicode="W" horiz-adv-x="833" 
d="M277 -16l-297 702l67 16l231 -558l99 242l-125 300l64 16l98 -232l100 232l58 -16l-121 -300l103 -242l228 558l70 -16l-300 -702h-2l-136 324l-135 -324h-2z" />
    <glyph glyph-name="X" unicode="X" horiz-adv-x="556" 
d="M74 694l208 -277l190 277l56 -28l-208 -302l260 -340l-61 -32l-237 318l-229 -318l-64 27l253 351l-220 296z" />
    <glyph glyph-name="Y" unicode="Y" 
d="M39 702l228 -377l197 377l68 -16l-369 -694l-71 16l139 251l-256 427z" />
    <glyph glyph-name="Z" unicode="Z" horiz-adv-x="556" 
d="M32 624l14 62h481l-399 -624h414l-13 -62h-516l400 624h-381z" />
    <glyph glyph-name="bracketleft" unicode="[" horiz-adv-x="278" 
d="M35 -140v826h164v-48h-111v-730h111v-48h-164z" />
    <glyph glyph-name="backslash" unicode="\" horiz-adv-x="278" 
d="M229 -16l-229 718h50l229 -718h-50z" />
    <glyph glyph-name="bracketright" unicode="]" horiz-adv-x="278" 
d="M243 686v-826h-164v48h111v730h-111v48h164z" />
    <glyph glyph-name="asciicircum" unicode="^" horiz-adv-x="600" 
d="M111 243h-64l224 443h58l224 -443h-63l-191 376z" />
    <glyph glyph-name="underscore" unicode="_" 
d="M0 -75h500v-50h-500v50z" />
    <glyph glyph-name="grave" unicode="`" horiz-adv-x="222" 
d="M174 566h-52l-136 139h77z" />
    <glyph glyph-name="a" unicode="a" horiz-adv-x="444" 
d="M68 416l19 68q73 30 146 30q64 0 110.5 -33t46.5 -94v-387l-58 -12v63h-2q-34 -63 -123 -63q-80 0 -135.5 48t-55.5 127q0 84 50.5 137t133.5 53q66 0 132 -58v84q0 32 -34 54.5t-84 22.5q-17 0 -38 -4.5t-35.5 -9.5t-39 -14t-33.5 -12zM74 163q0 -53 41.5 -85t95.5 -32
q53 0 87 35t34 89q0 55 -34.5 90t-88.5 35q-59 0 -97 -36.5t-38 -95.5z" />
    <glyph glyph-name="b" unicode="b" horiz-adv-x="611" 
d="M54 262v450l58 12v-317q96 107 217 107q107 0 179.5 -70.5t72.5 -186.5q0 -111 -75.5 -190t-185.5 -79q-125 0 -195.5 74.5t-70.5 199.5zM112 246q0 -87 61 -143.5t148 -56.5t143 57.5t59 145.5q0 90 -57.5 148.5t-147.5 58.5q-87 0 -146.5 -59.5t-59.5 -150.5z" />
    <glyph glyph-name="c" unicode="c" 
d="M428 97l36 -45q-29 -28 -79.5 -46t-100.5 -18q-110 0 -184.5 75.5t-74.5 192.5q0 112 80.5 185t189.5 73q85 0 172 -59l-36 -47q-55 48 -139 48q-90 0 -149.5 -58.5t-59.5 -148.5q0 -82 56.5 -142.5t139.5 -60.5q81 -1 149 51z" />
    <glyph glyph-name="d" unicode="d" horiz-adv-x="611" 
d="M494 250q0 94 -59 150t-145 56t-142.5 -62t-56.5 -141q0 -89 56 -148t145 -59q83 0 142.5 61t59.5 143zM494 415v297l58 12v-724l-58 -12v96h-2q-30 -40 -84 -68t-113 -28q-111 0 -186.5 74t-75.5 191q0 110 75.5 185.5t184.5 75.5q112 0 199 -99h2z" />
    <glyph glyph-name="e" unicode="e" 
d="M483 397l-382 -234q18 -42 66.5 -79.5t111.5 -37.5q90 0 190 83v-70q-32 -32 -85 -51.5t-101 -19.5q-115 0 -187.5 77t-72.5 192q0 113 74.5 185t187.5 72q65 0 119.5 -35t78.5 -82zM85 215l307 197q-40 44 -107 44q-88 0 -146 -57.5t-58 -142.5q0 -24 4 -41z" />
    <glyph glyph-name="f" unicode="f" horiz-adv-x="278" 
d="M37 502h54v52q0 53 15 88t44 52.5t60 23.5t74 6l15 -58q-69 -1 -100 -12t-40.5 -34.5t-9.5 -77.5v-40h143v-58h-143v-444l-58 -12v456h-68z" />
    <glyph glyph-name="g" unicode="g" 
d="M237 460q-60 0 -106 -36.5t-46 -96.5q0 -59 45 -93.5t106 -34.5q60 0 107 35t47 93q0 60 -46.5 96.5t-106.5 36.5zM2 -62l44 33q84 -97 183 -97q64 0 115.5 36t51.5 90q0 62 -49.5 103.5t-112.5 41.5q-54 0 -131 -29l21 66q-40 18 -68.5 58.5t-28.5 83.5q0 87 60.5 138.5
t148.5 51.5q10 0 30.5 -1t30.5 -1q72 0 165 19l-17 -59q-22 -7 -44 -7q-13 0 -27 3l-2 -2q76 -62 76 -138q0 -51 -30.5 -93t-78.5 -61q115 -53 115 -166q0 -87 -68.5 -139.5t-161.5 -52.5q-66 0 -124 34t-98 88z" />
    <glyph glyph-name="h" unicode="h" 
d="M112 0l-58 -8v720l58 12v-283h2q20 34 59.5 53.5t85.5 19.5q187 0 187 -177v-337l-58 -8v358q0 54 -33 83t-94 29q-51 0 -100 -35.5t-49 -101.5v-325z" />
    <glyph glyph-name="i" unicode="i" horiz-adv-x="222" 
d="M140 0l-58 -12v514l58 12v-514zM106 724l46 -52l-46 -52l-46 52z" />
    <glyph glyph-name="j" unicode="j" horiz-adv-x="222" 
d="M82 502l58 12v-519q0 -179 -192 -179l-21 62q24 -4 37 -4q67 0 92.5 37t25.5 132v459zM106 724l46 -52l-46 -52l-46 52z" />
    <glyph glyph-name="k" unicode="k" horiz-adv-x="389" 
d="M110 258l226 262l46 -28l-203 -236l227 -230l-37 -34l-259 252v-244l-58 -12v724l58 12v-466z" />
    <glyph glyph-name="l" unicode="l" horiz-adv-x="222" 
d="M140 724v-724l-58 -12v724z" />
    <glyph glyph-name="m" unicode="m" horiz-adv-x="778" 
d="M121 0l-58 -8v510l58 12v-86h2q17 36 57 61t77 25q57 0 87 -18.5t60 -64.5q26 38 64 60.5t79 22.5q74 0 121 -37t47 -111v-366l-58 -8v362q0 48 -29.5 78t-76.5 30q-66 0 -99.5 -40.5t-33.5 -110.5v-311l-58 -8v362q0 48 -29.5 78t-76.5 30q-66 0 -99.5 -40.5
t-33.5 -110.5v-311z" />
    <glyph glyph-name="n" unicode="n" 
d="M112 0l-58 -8v510l58 12v-83h2q21 35 61 59t84 24q187 0 187 -177v-337l-58 -8v358q0 54 -33 83t-94 29q-51 0 -100 -35.5t-49 -101.5v-325z" />
    <glyph glyph-name="o" unicode="o" horiz-adv-x="556" 
d="M278 514q108 0 182.5 -79.5t74.5 -183.5t-74.5 -183.5t-182.5 -79.5t-182.5 79.5t-74.5 183.5t74.5 183.5t182.5 79.5zM278 456q-83 0 -141 -61.5t-58 -143.5t58 -143.5t141 -61.5t141 61.5t58 143.5t-58 143.5t-141 61.5z" />
    <glyph glyph-name="p" unicode="p" horiz-adv-x="611" 
d="M117 252q0 -94 59 -150t145 -56t142.5 62t56.5 141q0 89 -56 148t-145 59q-83 0 -142.5 -61t-59.5 -143zM117 81v-253l-58 -12v686l58 12v-116h2q29 53 82.5 84.5t114.5 31.5q109 0 185.5 -79t76.5 -186q0 -110 -75.5 -185.5t-184.5 -75.5q-125 0 -199 93h-2z" />
    <glyph glyph-name="q" unicode="q" horiz-adv-x="611" 
d="M494 252q0 82 -59.5 143t-142.5 61q-89 0 -145 -59t-56 -148q0 -79 56.5 -141t142.5 -62t145 56t59 150zM494 -184v269h-2q-88 -97 -199 -97q-109 0 -184.5 75.5t-75.5 185.5q0 107 76.5 186t185.5 79q60 0 114 -30.5t83 -78.5h2v97l58 12v-686z" />
    <glyph glyph-name="r" unicode="r" horiz-adv-x="278" 
d="M111 514v-112h2q26 62 69.5 87t116.5 25l-25 -59q-6 1 -23 1q-51 0 -95.5 -57.5t-44.5 -146.5v-252l-58 -12v514z" />
    <glyph glyph-name="s" unicode="s" horiz-adv-x="389" 
d="M17 64l44 37q58 -55 126 -55q47 0 77.5 24t30.5 69q0 29 -19.5 48.5t-49 28t-64 19.5t-64 23.5t-49 40.5t-19.5 69q0 66 49 106t117 40q42 0 75 -14.5t75 -44.5l-33 -46q-63 47 -120 47q-45 0 -75 -22t-30 -63q0 -34 27.5 -53.5t66 -29t77.5 -21.5t66.5 -43t27.5 -82
q0 -75 -50.5 -114.5t-128.5 -39.5q-93 0 -157 76z" />
    <glyph glyph-name="t" unicode="t" horiz-adv-x="278" 
d="M72 502v123l58 32v-155h136v-58h-136v-310q0 -46 21 -65t69 -19q31 0 47 2v-54q-32 -6 -52 -6q-69 0 -106 37.5t-37 105.5v309h-67l14 58h53z" />
    <glyph glyph-name="u" unicode="u" 
d="M54 502l58 12v-333q0 -141 122 -141q39 0 64.5 9t47 33t32 72t10.5 122v226l58 12v-514l-58 -8v83h-2q-16 -36 -59 -61.5t-98 -25.5q-175 0 -175 186v328z" />
    <glyph glyph-name="v" unicode="v" horiz-adv-x="444" 
d="M35 514l187 -386l181 386l62 -12l-242 -514h-2l-242 514z" />
    <glyph glyph-name="w" unicode="w" horiz-adv-x="778" 
d="M571 -12l-188 397l-178 -397h-2l-223 514l57 12l167 -383l181 383l187 -383l170 383l56 -12l-225 -514h-2z" />
    <glyph glyph-name="x" unicode="x" horiz-adv-x="444" 
d="M54 514l166 -211l161 211l52 -24l-176 -230l186 -244l-52 -24l-171 219l-162 -219l-55 24l178 244l-179 230z" />
    <glyph glyph-name="y" unicode="y" horiz-adv-x="444" 
d="M201 87l-225 415l57 12l201 -366l176 366l58 -12l-335 -686l-56 12z" />
    <glyph glyph-name="z" unicode="z" 
d="M6 0l357 444h-313l13 58h416l-359 -444h357l-15 -58h-456z" />
    <glyph glyph-name="braceleft" unicode="{" horiz-adv-x="333" 
d="M66 256v42q34 0 51 38.5t17 96.5v155q0 53 23 83.5t61 30.5h50v-48h-41q-40 0 -40 -88v-148q0 -61 -24 -96.5t-44 -43.5v-1q8 -4 17.5 -12.5t22 -24.5t20.5 -43.5t8 -61.5v-146q0 -37 9.5 -62.5t29.5 -25.5h42v-48h-50q-38 0 -61 30.5t-23 83.5v153q0 59 -16.5 97.5
t-51.5 38.5z" />
    <glyph glyph-name="bar" unicode="|" horiz-adv-x="222" 
d="M82 750h58v-1000h-58v1000z" />
    <glyph glyph-name="braceright" unicode="}" horiz-adv-x="333" 
d="M267 299v-42q-34 0 -51 -38.5t-17 -96.5v-155q0 -53 -23 -83.5t-61 -30.5h-50v48h41q40 0 40 88v148q0 61 24 96.5t44 43.5v1q-8 4 -17.5 12.5t-22 24.5t-20.5 43.5t-8 61.5v146q0 37 -9.5 62.5t-29.5 25.5h-42v48h50q38 0 61 -30.5t23 -83.5v-153q0 -59 16.5 -97.5
t51.5 -38.5z" />
    <glyph glyph-name="asciitilde" unicode="~" horiz-adv-x="600" 
d="M495 317l36 -42q-20 -27 -33 -42t-38 -29.5t-54 -14.5q-38 0 -104 34t-113 34q-51 0 -84 -72l-36 42q45 86 125 86q41 0 115 -34q76 -34 98 -34q19 0 36.5 12t27 24.5t24.5 35.5z" />
    <glyph glyph-name="uni00A0" unicode="&#xa0;" horiz-adv-x="250" 
 />
    <glyph glyph-name="exclamdown" unicode="&#xa1;" horiz-adv-x="222" 
d="M74 -184l10 547l57 6v-542zM169 485l-52 -59l-52 59l52 59z" />
    <glyph glyph-name="cent" unicode="&#xa2;" 
d="M213 232v266q-44 -4 -73 -46.5t-29 -88.5q0 -50 32.5 -90.5t69.5 -40.5zM214 546v118l43 10v-128q61 -11 99 -41l-28 -37q-25 23 -71 30v-266q38 0 75 27q2 -3 14.5 -20t12.5 -18q-50 -37 -102 -37v-162l-43 -10v172q-70 11 -113.5 58.5t-43.5 117.5q0 150 157 186z" />
    <glyph glyph-name="sterling" unicode="&#xa3;" 
d="M10 0v62h86v260h-86l21 62h65v73q0 135 47.5 190t119.5 55q71 0 111.5 -52t49.5 -125l-52 -9q-3 57 -30.5 95.5t-78.5 38.5q-46 0 -74.5 -44t-28.5 -138v-84h126v-62h-126v-260h111q86 0 115.5 35.5t36.5 127.5l58 -17q1 -94 -47.5 -151t-139.5 -57h-284z" />
    <glyph glyph-name="currency" unicode="&#xa4;" 
d="M1 141l54 57q-53 66 -53 151q0 95 55 153l-56 57l40 40l57 -55q63 54 155 54q86 0 149 -54l56 56l42 -42l-55 -54q53 -60 53 -153q0 -89 -52 -154l53 -56l-40 -40l-54 58q-63 -57 -153 -57q-93 0 -157 57l-54 -58zM252 160q78 0 133 56.5t55 134.5q0 76 -55.5 132.5
t-131.5 56.5q-80 0 -136.5 -56t-56.5 -135q0 -78 57 -133.5t135 -55.5z" />
    <glyph glyph-name="yen" unicode="&#xa5;" 
d="M441 378v-58h-123l-36 -60v-22h139v-58h-139v-180l-64 -8v188h-139v58h139v22l-38 60h-121v58h91l-165 308l68 16l197 -377l197 377l68 -16l-167 -308h93z" />
    <glyph glyph-name="brokenbar" unicode="&#xa6;" horiz-adv-x="222" 
d="M82 675h58v-350h-58v350zM82 175h58v-350h-58v350z" />
    <glyph glyph-name="section" unicode="&#xa7;" 
d="M417 587l-50 -24q-17 40 -47.5 65.5t-69.5 25.5q-33 0 -57.5 -24t-24.5 -57q0 -29 29 -64t70 -69.5t82 -70.5t70 -79t29 -83q0 -53 -34 -86t-88 -35q70 -66 70 -131q0 -69 -41 -104t-111 -35q-107 0 -159 104l50 29q33 -85 120 -85q38 0 60.5 23t22.5 61q0 28 -29.5 66.5
t-71.5 77.5t-84 79.5t-71.5 84.5t-29.5 80q0 51 31 82.5t84 38.5q-57 46 -57 108q0 63 38.5 100t101.5 37q114 0 167 -115zM110 361q0 -29 22 -69.5t56 -77.5q81 -86 139 -86q25 0 44 19t19 44q0 24 -24 62t-60 74q-86 88 -138 88q-22 0 -40 -16.5t-18 -37.5z" />
    <glyph glyph-name="dieresis" unicode="&#xa8;" horiz-adv-x="222" 
d="M-20 625l43 53l45 -53l-45 -52zM154 625l43 53l45 -53l-45 -52z" />
    <glyph glyph-name="copyright" unicode="&#xa9;" horiz-adv-x="800" 
d="M401 702q148 0 254 -104.5t106 -253.5q0 -150 -106 -255t-254 -105q-149 0 -255.5 105t-106.5 255q0 149 106.5 253.5t255.5 104.5zM703 344q0 130 -86.5 218t-215.5 88q-130 0 -217 -88t-87 -218q0 -132 87 -220t217 -88q129 0 215.5 88t86.5 220zM535 272h56
q-14 -70 -63 -112t-116 -42q-96 0 -155.5 64.5t-59.5 161.5q0 99 57 161.5t155 62.5q72 0 122.5 -39.5t59.5 -110.5h-56q-9 43 -42.5 70.5t-82.5 27.5q-72 0 -113.5 -49t-41.5 -122q0 -71 43.5 -123t113.5 -52q48 0 81.5 29t41.5 73z" />
    <glyph glyph-name="ordfeminine" unicode="&#xaa;" horiz-adv-x="266" 
d="M34 631l13 53q44 18 94 18q42 0 72.5 -19.5t30.5 -56.5v-232l-48 -6v37h-2q-19 -37 -69 -37q-53 0 -89 28t-36 76q0 50 33 82t87 32q24 0 45 -10.5t29 -24.5h2v50q0 11 -18.5 22t-48.5 11q-44 0 -95 -23zM58 492q0 -56 69 -56t69 60q0 62 -70 62q-68 0 -68 -66z" />
    <glyph glyph-name="guillemotleft" unicode="&#xab;" horiz-adv-x="444" 
d="M74 251l140 139l34 -32l-110 -107l110 -107l-34 -32zM218 251l140 139l34 -32l-110 -107l110 -107l-34 -32z" />
    <glyph glyph-name="logicalnot" unicode="&#xac;" horiz-adv-x="600" 
d="M493 99v222h-444v58h502v-280h-58z" />
    <glyph glyph-name="uni00AD" unicode="&#xad;" horiz-adv-x="333" 
d="M294 278v-54h-255v54h255z" />
    <glyph glyph-name="registered" unicode="&#xae;" horiz-adv-x="800" 
d="M401 -16q-149 0 -255.5 105t-106.5 255q0 149 106.5 253.5t255.5 104.5q148 0 254 -104.5t106 -253.5q0 -150 -106 -255t-254 -105zM703 344q0 130 -86.5 218t-215.5 88q-130 0 -217 -88t-87 -218q0 -132 87 -220t217 -88q129 0 215.5 88t86.5 220zM319 317v-185h-54v424
h162q141 0 141 -120q0 -100 -107 -118l123 -186h-64l-117 185h-84zM416 508h-97v-143h99q53 0 74.5 18t21.5 55q0 70 -98 70z" />
    <glyph glyph-name="macron" unicode="&#xaf;" horiz-adv-x="222" 
d="M-36 601v48h294v-48h-294z" />
    <glyph glyph-name="degree" unicode="&#xb0;" horiz-adv-x="400" 
d="M104 559q0 -41 26.5 -68t69.5 -27t69.5 27t26.5 68t-26.5 68t-69.5 27t-69.5 -27t-26.5 -68zM200 416q-60 0 -102 41.5t-42 101.5t42 101.5t102 41.5t102 -41.5t42 -101.5t-42 -101.5t-102 -41.5z" />
    <glyph glyph-name="plusminus" unicode="&#xb1;" horiz-adv-x="600" 
d="M271 330v172h58v-172h222v-58h-222v-175h-58v175h-222v58h222zM49 0v58h502v-58h-502z" />
    <glyph glyph-name="twosuperior" unicode="&#xb2;" horiz-adv-x="300" 
d="M19 281l138 134q2 2 13.5 13t14.5 14.5t13.5 14t14 15t11.5 14.5t11 16t8.5 16t7.5 18t4 17.5t2 19.5q0 42 -25.5 64.5t-70.5 22.5q-42 0 -67.5 -22.5t-25.5 -61.5q0 -42 23.5 -68t67.5 -33l-26 -29q-49 7 -81 43t-32 83q0 55 40 92.5t99 37.5q64 0 105 -37.5t41 -91.5
q0 -68 -79 -142l-115 -108h191l-6 -42h-277z" />
    <glyph glyph-name="threesuperior" unicode="&#xb3;" horiz-adv-x="300" 
d="M110 479v35q123 -4 123 76q0 70 -80 70q-60 0 -100 -41l-26 24q34 32 60.5 45.5t67.5 13.5q53 0 89.5 -29.5t36.5 -77.5q0 -64 -71 -94q39 -14 61 -42.5t22 -65.5q0 -55 -42 -88.5t-103 -33.5q-42 0 -78 21.5t-55 57.5l34 20q29 -57 99 -57q97 0 97 83q0 50 -34.5 66.5
t-100.5 16.5z" />
    <glyph glyph-name="acute" unicode="&#xb4;" horiz-adv-x="222" 
d="M100 566h-52l111 139h77z" />
    <glyph glyph-name="mu" unicode="&#xb5;" 
d="M54 502l58 12v-343q0 -131 122 -131q81 0 117.5 49t36.5 187v226l58 12v-514l-58 -8v83h-2q-16 -36 -59 -61.5t-98 -25.5q-77 0 -117 35v-195l-58 -12v686z" />
    <glyph glyph-name="paragraph" unicode="&#xb6;" horiz-adv-x="600" 
d="M266 -183v496q-87 0 -145.5 53.5t-58.5 130.5q0 92 58 140.5t162 48.5h223v-869h-58v821h-123v-821h-58z" />
    <glyph glyph-name="periodcentered" unicode="&#xb7;" horiz-adv-x="250" 
d="M124 201q-21 0 -35 14.5t-14 35.5q0 20 14.5 35t34.5 15t35.5 -15t15.5 -35q0 -21 -15 -35.5t-36 -14.5z" />
    <glyph glyph-name="cedilla" unicode="&#xb8;" horiz-adv-x="222" 
d="M18 -188l14 30q40 -15 59 -15q71 0 71 41q0 17 -13 30t-33 13q-33 0 -48 -6l-15 13l60 82h38l-46 -57l2 -2q13 6 34 6q37 0 58 -19.5t21 -57.5q0 -37 -33.5 -58t-72.5 -21q-54 0 -96 21z" />
    <glyph glyph-name="onesuperior" unicode="&#xb9;" horiz-adv-x="300" 
d="M213 702v-421l-48 -5v363l-116 -61l-13 26z" />
    <glyph glyph-name="ordmasculine" unicode="&#xba;" horiz-adv-x="334" 
d="M3 545q0 67 46.5 112t118.5 45q71 0 117 -45t46 -112t-46 -112t-117 -45q-72 0 -118.5 45t-46.5 112zM51 545q0 -44 33.5 -76.5t83.5 -32.5q49 0 82 32.5t33 76.5t-33 76.5t-82 32.5q-50 0 -83.5 -32.5t-33.5 -76.5z" />
    <glyph glyph-name="guillemotright" unicode="&#xbb;" horiz-adv-x="444" 
d="M370 251l-140 -139l-34 32l110 107l-110 107l34 32zM226 251l-140 -139l-34 32l110 107l-110 107l34 32z" />
    <glyph glyph-name="onequarter" unicode="&#xbc;" horiz-adv-x="750" 
d="M727 111h-69v-111l-48 -5v116h-188l236 322v-280h75zM608 315l-121 -162h123v162h-2zM153 -16l446 718h55l-445 -718h-56zM213 702v-421l-48 -5v363l-116 -61l-13 26z" />
    <glyph glyph-name="onehalf" unicode="&#xbd;" horiz-adv-x="750" 
d="M116 -16l446 718h55l-445 -718h-56zM213 702v-421l-48 -5v363l-116 -61l-13 26zM441 0l138 134q2 2 13.5 13t14.5 14.5t13.5 14t14 15t11.5 14.5t11 16t8.5 16t7.5 18t4 17.5t2 19.5q0 42 -25.5 64.5t-70.5 22.5q-42 0 -67.5 -22.5t-25.5 -61.5q0 -42 23.5 -68t67.5 -33
l-26 -29q-49 7 -81 43t-32 83q0 55 40 92.5t99 37.5q64 0 105 -37.5t41 -91.5q0 -68 -79 -142l-115 -108h191l-6 -42h-277z" />
    <glyph glyph-name="threequarters" unicode="&#xbe;" horiz-adv-x="750" 
d="M110 479v35q123 -4 123 76q0 70 -80 70q-60 0 -100 -41l-26 24q34 32 60.5 45.5t67.5 13.5q53 0 89.5 -29.5t36.5 -77.5q0 -64 -71 -94q39 -14 61 -42.5t22 -65.5q0 -55 -42 -88.5t-103 -33.5q-42 0 -78 21.5t-55 57.5l34 20q29 -57 99 -57q97 0 97 83q0 50 -34.5 66.5
t-100.5 16.5zM153 -16l446 718h55l-445 -718h-56zM727 111h-69v-111l-48 -5v116h-188l236 322v-280h75zM608 315l-121 -162h123v162h-2z" />
    <glyph glyph-name="questiondown" unicode="&#xbf;" horiz-adv-x="444" 
d="M186 342l48 12v-122q0 -30 -15.5 -51t-37 -35.5t-43.5 -30.5t-37.5 -45t-15.5 -70q0 -52 37.5 -89t89.5 -37q60 0 92.5 26t61.5 85l50 -27q-64 -142 -194 -142q-81 0 -138 55.5t-57 136.5q0 45 16.5 78.5t39.5 52.5t46.5 36.5t40 42t16.5 57.5v67zM256 485l-52 -59
l-52 59l52 59z" />
    <glyph glyph-name="Agrave" unicode="&#xc0;" horiz-adv-x="667" 
d="M483 270h-294l-139 -286l-66 16l349 702h2l349 -702l-60 -14zM448 332l-114 229l-115 -229h229zM397 726h-52l-136 139h77z" />
    <glyph glyph-name="Aacute" unicode="&#xc1;" horiz-adv-x="667" 
d="M483 270h-294l-139 -286l-66 16l349 702h2l349 -702l-60 -14zM448 332l-114 229l-115 -229h229zM323 726h-52l111 139h77z" />
    <glyph glyph-name="Acircumflex" unicode="&#xc2;" horiz-adv-x="667" 
d="M483 270h-294l-139 -286l-66 16l349 702h2l349 -702l-60 -14zM448 332l-114 229l-115 -229h229zM301 865h67l113 -139h-65l-82 102l-82 -102h-64z" />
    <glyph glyph-name="Atilde" unicode="&#xc3;" horiz-adv-x="667" 
d="M483 270h-294l-139 -286l-66 16l349 702h2l349 -702l-60 -14zM448 332l-114 229l-115 -229h229zM216 738h-37q2 37 27 67t61 30q23 0 73 -22q46 -23 69 -23q36 0 44 49h39q-17 -97 -88 -97q-23 0 -71 23q-50 22 -69 22q-39 0 -48 -49z" />
    <glyph glyph-name="Adieresis" unicode="&#xc4;" horiz-adv-x="667" 
d="M483 270h-294l-139 -286l-66 16l349 702h2l349 -702l-60 -14zM448 332l-114 229l-115 -229h229zM203 785l43 53l45 -53l-45 -52zM377 785l43 53l45 -53l-45 -52z" />
    <glyph glyph-name="Aring" unicode="&#xc5;" horiz-adv-x="667" 
d="M483 270h-294l-139 -286l-66 16l349 702h2l349 -702l-60 -14zM448 332l-114 229l-115 -229h229zM334 725q-41 0 -70.5 29t-29.5 70t29.5 70.5t70.5 29.5t70.5 -29.5t29.5 -70.5t-29.5 -70t-70.5 -29zM334 890q-28 0 -47 -19.5t-19 -46.5q0 -28 19 -46.5t47 -18.5
q27 0 46.5 19t19.5 46t-19.5 46.5t-46.5 19.5z" />
    <glyph glyph-name="AE" unicode="&#xc6;" horiz-adv-x="944" 
d="M525 624l-176 -245h183v245h-7zM77 -8l-64 20l477 674h400l12 -62h-308v-245h262v-62h-262v-255h332l-13 -62h-381v317h-224z" />
    <glyph glyph-name="Ccedilla" unicode="&#xc7;" horiz-adv-x="556" 
d="M514 92l-9 -76q-69 -32 -129 -32h-5l-33 -41l2 -2q14 6 34 6q37 0 58 -19.5t21 -57.5q0 -37 -33.5 -58t-72.5 -21q-54 0 -96 21l14 30q40 -15 59 -15q71 0 71 41q0 17 -13 30t-33 13q-33 0 -48 -6l-15 13l50 68q-130 15 -220 116.5t-90 240.5q0 151 104 255t246 104
q60 0 129 -32l9 -76q-59 46 -143 46q-118 0 -197.5 -86.5t-79.5 -210.5t79.5 -210.5t197.5 -86.5q84 0 143 46z" />
    <glyph glyph-name="Egrave" unicode="&#xc8;" 
d="M463 0h-389v686h371l12 -62h-321v-245h275v-62h-275v-255h338zM332 726h-52l-136 139h77z" />
    <glyph glyph-name="Eacute" unicode="&#xc9;" 
d="M463 0h-389v686h371l12 -62h-321v-245h275v-62h-275v-255h338zM258 726h-52l111 139h77z" />
    <glyph glyph-name="Ecircumflex" unicode="&#xca;" 
d="M463 0h-389v686h371l12 -62h-321v-245h275v-62h-275v-255h338zM236 865h67l113 -139h-65l-82 102l-82 -102h-64z" />
    <glyph glyph-name="Edieresis" unicode="&#xcb;" 
d="M463 0h-389v686h371l12 -62h-321v-245h275v-62h-275v-255h338zM138 785l43 53l45 -53l-45 -52zM312 785l43 53l45 -53l-45 -52z" />
    <glyph glyph-name="Igrave" unicode="&#xcc;" horiz-adv-x="222" 
d="M80 -8v694l62 16v-702zM174 726h-52l-136 139h77z" />
    <glyph glyph-name="Iacute" unicode="&#xcd;" horiz-adv-x="222" 
d="M80 -8v694l62 16v-702zM100 726h-52l111 139h77z" />
    <glyph glyph-name="Icircumflex" unicode="&#xce;" horiz-adv-x="222" 
d="M80 -8v694l62 16v-702zM78 865h67l113 -139h-65l-82 102l-82 -102h-64z" />
    <glyph glyph-name="Idieresis" unicode="&#xcf;" horiz-adv-x="222" 
d="M80 -8v694l62 16v-702zM-20 785l43 53l45 -53l-45 -52zM154 785l43 53l45 -53l-45 -52z" />
    <glyph glyph-name="Eth" unicode="&#xd0;" horiz-adv-x="611" 
d="M3 317v62h65v307h176q142 0 238.5 -97t96.5 -242q0 -147 -96 -247t-239 -100h-176v317h-65zM296 379v-62h-166v-255h101q122 0 201 81t79 204q0 121 -72 199t-193 78h-116v-245h166z" />
    <glyph glyph-name="Ntilde" unicode="&#xd1;" horiz-adv-x="667" 
d="M534 151v535l62 12v-714h-2l-459 554h-2v-538l-62 -8v710h2l459 -551h2zM216 738h-37q2 37 27 67t61 30q23 0 73 -22q46 -23 69 -23q36 0 44 49h39q-17 -97 -88 -97q-23 0 -71 23q-50 22 -69 22q-39 0 -48 -49z" />
    <glyph glyph-name="Ograve" unicode="&#xd2;" horiz-adv-x="778" 
d="M389 702q148 0 255.5 -105t107.5 -254t-107.5 -254t-255.5 -105t-255.5 105t-107.5 254t107.5 254t255.5 105zM389 640q-120 0 -207.5 -88t-87.5 -209t87.5 -209t207.5 -88t207.5 88t87.5 209t-87.5 209t-207.5 88zM452 726h-52l-136 139h77z" />
    <glyph glyph-name="Oacute" unicode="&#xd3;" horiz-adv-x="778" 
d="M389 702q148 0 255.5 -105t107.5 -254t-107.5 -254t-255.5 -105t-255.5 105t-107.5 254t107.5 254t255.5 105zM389 640q-120 0 -207.5 -88t-87.5 -209t87.5 -209t207.5 -88t207.5 88t87.5 209t-87.5 209t-207.5 88zM378 726h-52l111 139h77z" />
    <glyph glyph-name="Ocircumflex" unicode="&#xd4;" horiz-adv-x="778" 
d="M389 702q148 0 255.5 -105t107.5 -254t-107.5 -254t-255.5 -105t-255.5 105t-107.5 254t107.5 254t255.5 105zM389 640q-120 0 -207.5 -88t-87.5 -209t87.5 -209t207.5 -88t207.5 88t87.5 209t-87.5 209t-207.5 88zM356 865h67l113 -139h-65l-82 102l-82 -102h-64z" />
    <glyph glyph-name="Otilde" unicode="&#xd5;" horiz-adv-x="778" 
d="M389 702q148 0 255.5 -105t107.5 -254t-107.5 -254t-255.5 -105t-255.5 105t-107.5 254t107.5 254t255.5 105zM389 640q-120 0 -207.5 -88t-87.5 -209t87.5 -209t207.5 -88t207.5 88t87.5 209t-87.5 209t-207.5 88zM271 738h-37q2 37 27 67t61 30q23 0 73 -22
q46 -23 69 -23q36 0 44 49h39q-17 -97 -88 -97q-23 0 -71 23q-50 22 -69 22q-39 0 -48 -49z" />
    <glyph glyph-name="Odieresis" unicode="&#xd6;" horiz-adv-x="778" 
d="M389 702q148 0 255.5 -105t107.5 -254t-107.5 -254t-255.5 -105t-255.5 105t-107.5 254t107.5 254t255.5 105zM389 640q-120 0 -207.5 -88t-87.5 -209t87.5 -209t207.5 -88t207.5 88t87.5 209t-87.5 209t-207.5 88zM258 785l43 53l45 -53l-45 -52zM432 785l43 53l45 -53
l-45 -52z" />
    <glyph glyph-name="multiply" unicode="&#xd7;" horiz-adv-x="600" 
d="M259 251l-210 211l40 40l211 -209l211 209l40 -40l-211 -211l211 -211l-40 -40l-211 213l-211 -213l-40 40z" />
    <glyph glyph-name="Oslash" unicode="&#xd8;" horiz-adv-x="778" 
d="M585 562l-357 -467q74 -49 161 -49q120 0 207.5 88t87.5 209q0 130 -99 219zM188 127l356 467q-71 46 -155 46q-120 0 -207.5 -88t-87.5 -209q0 -127 94 -216zM189 44l-79 -104l-44 27l82 108q-57 49 -89.5 119t-32.5 149q0 149 107 254t256 105q105 0 194 -57l65 85
l44 -27l-67 -88q59 -51 93 -121.5t34 -150.5q0 -149 -107 -254t-256 -105q-110 0 -200 60z" />
    <glyph glyph-name="Ugrave" unicode="&#xd9;" horiz-adv-x="611" 
d="M546 702v-485q0 -109 -64.5 -171t-175.5 -62t-175.5 62t-64.5 171v469l62 16v-487q0 -63 47 -116t131 -53q81 0 129.5 55t48.5 133v452zM369 726h-52l-136 139h77z" />
    <glyph glyph-name="Uacute" unicode="&#xda;" horiz-adv-x="611" 
d="M546 702v-485q0 -109 -64.5 -171t-175.5 -62t-175.5 62t-64.5 171v469l62 16v-487q0 -63 47 -116t131 -53q81 0 129.5 55t48.5 133v452zM295 726h-52l111 139h77z" />
    <glyph glyph-name="Ucircumflex" unicode="&#xdb;" horiz-adv-x="611" 
d="M546 702v-485q0 -109 -64.5 -171t-175.5 -62t-175.5 62t-64.5 171v469l62 16v-487q0 -63 47 -116t131 -53q81 0 129.5 55t48.5 133v452zM273 865h67l113 -139h-65l-82 102l-82 -102h-64z" />
    <glyph glyph-name="Udieresis" unicode="&#xdc;" horiz-adv-x="611" 
d="M546 702v-485q0 -109 -64.5 -171t-175.5 -62t-175.5 62t-64.5 171v469l62 16v-487q0 -63 47 -116t131 -53q81 0 129.5 55t48.5 133v452zM175 785l43 53l45 -53l-45 -52zM349 785l43 53l45 -53l-45 -52z" />
    <glyph glyph-name="Yacute" unicode="&#xdd;" 
d="M39 702l228 -377l197 377l68 -16l-369 -694l-71 16l139 251l-256 427zM251 726h-52l111 139h77z" />
    <glyph glyph-name="Thorn" unicode="&#xde;" horiz-adv-x="444" 
d="M127 130v-130l-62 -8v694l62 16v-116h67q106 0 167.5 -59.5t61.5 -168.5q0 -103 -68 -165.5t-181 -62.5h-47zM127 524v-332h57q83 0 127 51t44 125q0 69 -41.5 112.5t-109.5 43.5h-77z" />
    <glyph glyph-name="germandbls" unicode="&#xdf;" horiz-adv-x="556" 
d="M141 450v-274l24 4q11 -58 49.5 -96t95.5 -38q69 0 114 45t45 104q0 153 -232 153v54q47 0 84 11t63 41t26 77q0 59 -40.5 96.5t-98.5 37.5q-27 0 -47.5 -7.5t-34 -18t-23 -29.5t-14.5 -35t-7.5 -41.5t-3 -41.5t-0.5 -42zM83 356h-75l16 58h59v121q0 83 55.5 135.5
t141.5 52.5q80 0 134 -53.5t54 -132.5q0 -92 -74 -146q58 -23 95.5 -73.5t37.5 -111.5q0 -93 -63 -155.5t-155 -62.5q-51 0 -96 27.5t-70 72.5h-2v-88l-58 -12v368z" />
    <glyph glyph-name="agrave" unicode="&#xe0;" horiz-adv-x="444" 
d="M68 416l19 68q73 30 146 30q64 0 110.5 -33t46.5 -94v-387l-58 -12v63h-2q-34 -63 -123 -63q-80 0 -135.5 48t-55.5 127q0 84 50.5 137t133.5 53q66 0 132 -58v84q0 32 -34 54.5t-84 22.5q-17 0 -38 -4.5t-35.5 -9.5t-39 -14t-33.5 -12zM74 163q0 -53 41.5 -85t95.5 -32
q53 0 87 35t34 89q0 55 -34.5 90t-88.5 35q-59 0 -97 -36.5t-38 -95.5zM292 566h-52l-136 139h77z" />
    <glyph glyph-name="aacute" unicode="&#xe1;" horiz-adv-x="444" 
d="M68 416l19 68q73 30 146 30q64 0 110.5 -33t46.5 -94v-387l-58 -12v63h-2q-34 -63 -123 -63q-80 0 -135.5 48t-55.5 127q0 84 50.5 137t133.5 53q66 0 132 -58v84q0 32 -34 54.5t-84 22.5q-17 0 -38 -4.5t-35.5 -9.5t-39 -14t-33.5 -12zM74 163q0 -53 41.5 -85t95.5 -32
q53 0 87 35t34 89q0 55 -34.5 90t-88.5 35q-59 0 -97 -36.5t-38 -95.5zM218 566h-52l111 139h77z" />
    <glyph glyph-name="acircumflex" unicode="&#xe2;" horiz-adv-x="444" 
d="M68 416l19 68q73 30 146 30q64 0 110.5 -33t46.5 -94v-387l-58 -12v63h-2q-34 -63 -123 -63q-80 0 -135.5 48t-55.5 127q0 84 50.5 137t133.5 53q66 0 132 -58v84q0 32 -34 54.5t-84 22.5q-17 0 -38 -4.5t-35.5 -9.5t-39 -14t-33.5 -12zM74 163q0 -53 41.5 -85t95.5 -32
q53 0 87 35t34 89q0 55 -34.5 90t-88.5 35q-59 0 -97 -36.5t-38 -95.5zM196 705h67l113 -139h-65l-82 102l-82 -102h-64z" />
    <glyph glyph-name="atilde" unicode="&#xe3;" horiz-adv-x="444" 
d="M68 416l19 68q73 30 146 30q64 0 110.5 -33t46.5 -94v-387l-58 -12v63h-2q-34 -63 -123 -63q-80 0 -135.5 48t-55.5 127q0 84 50.5 137t133.5 53q66 0 132 -58v84q0 32 -34 54.5t-84 22.5q-17 0 -38 -4.5t-35.5 -9.5t-39 -14t-33.5 -12zM74 163q0 -53 41.5 -85t95.5 -32
q53 0 87 35t34 89q0 55 -34.5 90t-88.5 35q-59 0 -97 -36.5t-38 -95.5zM111 578h-37q2 37 27 67t61 30q23 0 73 -22q46 -23 69 -23q36 0 44 49h39q-17 -97 -88 -97q-23 0 -71 23q-50 22 -69 22q-39 0 -48 -49z" />
    <glyph glyph-name="adieresis" unicode="&#xe4;" horiz-adv-x="444" 
d="M68 416l19 68q73 30 146 30q64 0 110.5 -33t46.5 -94v-387l-58 -12v63h-2q-34 -63 -123 -63q-80 0 -135.5 48t-55.5 127q0 84 50.5 137t133.5 53q66 0 132 -58v84q0 32 -34 54.5t-84 22.5q-17 0 -38 -4.5t-35.5 -9.5t-39 -14t-33.5 -12zM74 163q0 -53 41.5 -85t95.5 -32
q53 0 87 35t34 89q0 55 -34.5 90t-88.5 35q-59 0 -97 -36.5t-38 -95.5zM98 625l43 53l45 -53l-45 -52zM272 625l43 53l45 -53l-45 -52z" />
    <glyph glyph-name="aring" unicode="&#xe5;" horiz-adv-x="444" 
d="M68 416l19 68q73 30 146 30q64 0 110.5 -33t46.5 -94v-387l-58 -12v63h-2q-34 -63 -123 -63q-80 0 -135.5 48t-55.5 127q0 84 50.5 137t133.5 53q66 0 132 -58v84q0 32 -34 54.5t-84 22.5q-17 0 -38 -4.5t-35.5 -9.5t-39 -14t-33.5 -12zM74 163q0 -53 41.5 -85t95.5 -32
q53 0 87 35t34 89q0 55 -34.5 90t-88.5 35q-59 0 -97 -36.5t-38 -95.5zM229 565q-41 0 -70.5 29t-29.5 70t29.5 70.5t70.5 29.5t70.5 -29.5t29.5 -70.5t-29.5 -70t-70.5 -29zM229 730q-28 0 -47 -19.5t-19 -46.5q0 -28 19 -46.5t47 -18.5q27 0 46.5 19t19.5 46t-19.5 46.5
t-46.5 19.5z" />
    <glyph glyph-name="ae" unicode="&#xe6;" horiz-adv-x="889" 
d="M91 420l21 67q73 27 137 27q122 0 169 -100q89 100 212 100q63 0 121.5 -34t88.5 -89l-388 -227q16 -57 65 -87.5t107 -30.5q123 0 203 83v-74q-95 -67 -213 -67q-60 0 -113 30.5t-89 81.5q-34 -59 -78 -85.5t-111 -26.5q-78 0 -132 48.5t-54 126.5q0 87 51 138.5
t137 51.5q80 0 143 -61q3 20 3 40q0 58 -36.5 91t-96.5 33q-66 0 -147 -36zM431 218l322 189q-20 22 -56 35.5t-69 13.5q-87 0 -143 -59.5t-56 -146.5q0 -6 1 -16.5t1 -15.5zM231 46q59 0 98.5 36.5t39.5 88.5q0 56 -39 90t-95 34q-61 0 -100.5 -35.5t-39.5 -95.5
q0 -58 39 -88t97 -30z" />
    <glyph glyph-name="ccedilla" unicode="&#xe7;" 
d="M428 97l36 -45q-25 -25 -68 -42t-87 -20l-38 -47l2 -2q14 6 34 6q37 0 58 -19.5t21 -57.5q0 -37 -33.5 -58t-72.5 -21q-54 0 -96 21l14 30q40 -15 59 -15q71 0 71 41q0 17 -13 30t-33 13q-33 0 -48 -6l-15 13l52 71q-106 5 -176 79.5t-70 187.5q0 112 80.5 185t189.5 73
q85 0 172 -59l-36 -47q-55 48 -139 48q-90 0 -149.5 -58.5t-59.5 -148.5q0 -82 56.5 -142.5t139.5 -60.5q81 -1 149 51z" />
    <glyph glyph-name="egrave" unicode="&#xe8;" 
d="M483 397l-382 -234q18 -42 66.5 -79.5t111.5 -37.5q90 0 190 83v-70q-32 -32 -85 -51.5t-101 -19.5q-115 0 -187.5 77t-72.5 192q0 113 74.5 185t187.5 72q65 0 119.5 -35t78.5 -82zM85 215l307 197q-40 44 -107 44q-88 0 -146 -57.5t-58 -142.5q0 -24 4 -41zM334 566
h-52l-136 139h77z" />
    <glyph glyph-name="eacute" unicode="&#xe9;" 
d="M483 397l-382 -234q18 -42 66.5 -79.5t111.5 -37.5q90 0 190 83v-70q-32 -32 -85 -51.5t-101 -19.5q-115 0 -187.5 77t-72.5 192q0 113 74.5 185t187.5 72q65 0 119.5 -35t78.5 -82zM85 215l307 197q-40 44 -107 44q-88 0 -146 -57.5t-58 -142.5q0 -24 4 -41zM260 566
h-52l111 139h77z" />
    <glyph glyph-name="ecircumflex" unicode="&#xea;" 
d="M483 397l-382 -234q18 -42 66.5 -79.5t111.5 -37.5q90 0 190 83v-70q-32 -32 -85 -51.5t-101 -19.5q-115 0 -187.5 77t-72.5 192q0 113 74.5 185t187.5 72q65 0 119.5 -35t78.5 -82zM85 215l307 197q-40 44 -107 44q-88 0 -146 -57.5t-58 -142.5q0 -24 4 -41zM238 705h67
l113 -139h-65l-82 102l-82 -102h-64z" />
    <glyph glyph-name="edieresis" unicode="&#xeb;" 
d="M483 397l-382 -234q18 -42 66.5 -79.5t111.5 -37.5q90 0 190 83v-70q-32 -32 -85 -51.5t-101 -19.5q-115 0 -187.5 77t-72.5 192q0 113 74.5 185t187.5 72q65 0 119.5 -35t78.5 -82zM85 215l307 197q-40 44 -107 44q-88 0 -146 -57.5t-58 -142.5q0 -24 4 -41zM140 625
l43 53l45 -53l-45 -52zM314 625l43 53l45 -53l-45 -52z" />
    <glyph glyph-name="igrave" unicode="&#xec;" horiz-adv-x="222" 
d="M140 0l-58 -12v514l58 12v-514zM169 566h-52l-136 139h77z" />
    <glyph glyph-name="iacute" unicode="&#xed;" horiz-adv-x="222" 
d="M140 0l-58 -12v514l58 12v-514zM95 566h-52l111 139h77z" />
    <glyph glyph-name="icircumflex" unicode="&#xee;" horiz-adv-x="222" 
d="M140 0l-58 -12v514l58 12v-514zM73 705h67l113 -139h-65l-82 102l-82 -102h-64z" />
    <glyph glyph-name="idieresis" unicode="&#xef;" horiz-adv-x="222" 
d="M140 0l-58 -12v514l58 12v-514zM-25 625l43 53l45 -53l-45 -52zM149 625l43 53l45 -53l-45 -52z" />
    <glyph glyph-name="eth" unicode="&#xf0;" horiz-adv-x="556" 
d="M278 456q-83 0 -141 -61.5t-58 -143.5t58 -143.5t141 -61.5t141 61.5t58 143.5t-58 143.5t-141 61.5zM100 693l42 31q59 -29 119 -72l159 54l25 -45l-135 -45q99 -78 162 -173.5t63 -191.5q0 -109 -74.5 -186t-182.5 -77q-112 0 -184.5 76.5t-72.5 186.5
q0 106 75.5 184.5t181.5 78.5q24 0 68 -12l2 2q-35 45 -98 92l-152 -51l-24 44l127 43q-44 32 -101 61z" />
    <glyph glyph-name="ntilde" unicode="&#xf1;" 
d="M112 0l-58 -8v510l58 12v-83h2q21 35 61 59t84 24q187 0 187 -177v-337l-58 -8v358q0 54 -33 83t-94 29q-51 0 -100 -35.5t-49 -101.5v-325zM132 578h-37q2 37 27 67t61 30q23 0 73 -22q46 -23 69 -23q36 0 44 49h39q-17 -97 -88 -97q-23 0 -71 23q-50 22 -69 22
q-39 0 -48 -49z" />
    <glyph glyph-name="ograve" unicode="&#xf2;" horiz-adv-x="556" 
d="M278 514q108 0 182.5 -79.5t74.5 -183.5t-74.5 -183.5t-182.5 -79.5t-182.5 79.5t-74.5 183.5t74.5 183.5t182.5 79.5zM278 456q-83 0 -141 -61.5t-58 -143.5t58 -143.5t141 -61.5t141 61.5t58 143.5t-58 143.5t-141 61.5zM341 566h-52l-136 139h77z" />
    <glyph glyph-name="oacute" unicode="&#xf3;" horiz-adv-x="556" 
d="M278 514q108 0 182.5 -79.5t74.5 -183.5t-74.5 -183.5t-182.5 -79.5t-182.5 79.5t-74.5 183.5t74.5 183.5t182.5 79.5zM278 456q-83 0 -141 -61.5t-58 -143.5t58 -143.5t141 -61.5t141 61.5t58 143.5t-58 143.5t-141 61.5zM267 566h-52l111 139h77z" />
    <glyph glyph-name="ocircumflex" unicode="&#xf4;" horiz-adv-x="556" 
d="M278 514q108 0 182.5 -79.5t74.5 -183.5t-74.5 -183.5t-182.5 -79.5t-182.5 79.5t-74.5 183.5t74.5 183.5t182.5 79.5zM278 456q-83 0 -141 -61.5t-58 -143.5t58 -143.5t141 -61.5t141 61.5t58 143.5t-58 143.5t-141 61.5zM245 705h67l113 -139h-65l-82 102l-82 -102h-64
z" />
    <glyph glyph-name="otilde" unicode="&#xf5;" horiz-adv-x="556" 
d="M278 514q108 0 182.5 -79.5t74.5 -183.5t-74.5 -183.5t-182.5 -79.5t-182.5 79.5t-74.5 183.5t74.5 183.5t182.5 79.5zM278 456q-83 0 -141 -61.5t-58 -143.5t58 -143.5t141 -61.5t141 61.5t58 143.5t-58 143.5t-141 61.5zM160 578h-37q2 37 27 67t61 30q23 0 73 -22
q46 -23 69 -23q36 0 44 49h39q-17 -97 -88 -97q-23 0 -71 23q-50 22 -69 22q-39 0 -48 -49z" />
    <glyph glyph-name="odieresis" unicode="&#xf6;" horiz-adv-x="556" 
d="M278 514q108 0 182.5 -79.5t74.5 -183.5t-74.5 -183.5t-182.5 -79.5t-182.5 79.5t-74.5 183.5t74.5 183.5t182.5 79.5zM278 456q-83 0 -141 -61.5t-58 -143.5t58 -143.5t141 -61.5t141 61.5t58 143.5t-58 143.5t-141 61.5zM147 625l43 53l45 -53l-45 -52zM321 625l43 53
l45 -53l-45 -52z" />
    <glyph glyph-name="divide" unicode="&#xf7;" horiz-adv-x="600" 
d="M551 222h-502v58h502v-58zM240 458q0 23 18 41.5t42 18.5t42 -18.5t18 -41.5t-18 -41.5t-42 -18.5t-42 18.5t-18 41.5zM240 44q0 23 18 41.5t42 18.5t42 -18.5t18 -41.5t-18 -41.5t-42 -18.5t-42 18.5t-18 41.5z" />
    <glyph glyph-name="oslash" unicode="&#xf8;" horiz-adv-x="556" 
d="M140 101l234 326q-46 29 -96 29q-83 0 -141 -61.5t-58 -144.5q0 -93 61 -149zM414 398l-234 -325q44 -27 101 -27q82 0 139 61.5t57 142.5q0 87 -63 148zM81 -66l-43 25l68 94q-85 77 -85 199q0 105 75.5 183.5t181.5 78.5q67 0 130 -39l66 92l43 -25l-69 -97
q87 -81 87 -199q0 -106 -75 -182t-182 -76q-75 0 -133 36z" />
    <glyph glyph-name="ugrave" unicode="&#xf9;" 
d="M54 502l58 12v-333q0 -141 122 -141q39 0 64.5 9t47 33t32 72t10.5 122v226l58 12v-514l-58 -8v83h-2q-16 -36 -59 -61.5t-98 -25.5q-175 0 -175 186v328zM313 566h-52l-136 139h77z" />
    <glyph glyph-name="uacute" unicode="&#xfa;" 
d="M54 502l58 12v-333q0 -141 122 -141q39 0 64.5 9t47 33t32 72t10.5 122v226l58 12v-514l-58 -8v83h-2q-16 -36 -59 -61.5t-98 -25.5q-175 0 -175 186v328zM239 566h-52l111 139h77z" />
    <glyph glyph-name="ucircumflex" unicode="&#xfb;" 
d="M54 502l58 12v-333q0 -141 122 -141q39 0 64.5 9t47 33t32 72t10.5 122v226l58 12v-514l-58 -8v83h-2q-16 -36 -59 -61.5t-98 -25.5q-175 0 -175 186v328zM217 705h67l113 -139h-65l-82 102l-82 -102h-64z" />
    <glyph glyph-name="udieresis" unicode="&#xfc;" 
d="M54 502l58 12v-333q0 -141 122 -141q39 0 64.5 9t47 33t32 72t10.5 122v226l58 12v-514l-58 -8v83h-2q-16 -36 -59 -61.5t-98 -25.5q-175 0 -175 186v328zM119 625l43 53l45 -53l-45 -52zM293 625l43 53l45 -53l-45 -52z" />
    <glyph glyph-name="yacute" unicode="&#xfd;" horiz-adv-x="444" 
d="M201 87l-225 415l57 12l201 -366l176 366l58 -12l-335 -686l-56 12zM211 566h-52l111 139h77z" />
    <glyph glyph-name="thorn" unicode="&#xfe;" horiz-adv-x="611" 
d="M117 252q0 -94 59 -150t145 -56t142.5 62t56.5 141q0 89 -56 148t-145 59q-83 0 -142.5 -61t-59.5 -143zM117 81v-253l-58 -12v896l58 12v-326h2q29 53 82.5 84.5t114.5 31.5q109 0 185.5 -79t76.5 -186q0 -110 -75.5 -185.5t-184.5 -75.5q-118 0 -199 93h-2z" />
    <glyph glyph-name="ydieresis" unicode="&#xff;" horiz-adv-x="444" 
d="M201 87l-225 415l57 12l201 -366l176 366l58 -12l-335 -686l-56 12zM91 625l43 53l45 -53l-45 -52zM265 625l43 53l45 -53l-45 -52z" />
    <glyph glyph-name="dotlessi" unicode="&#x131;" horiz-adv-x="222" 
d="M140 0l-58 -12v514l58 12v-514z" />
    <glyph glyph-name="Lslash" unicode="&#x141;" horiz-adv-x="389" 
d="M252 446l-15 -62l-101 -50v-272h250l-19 -62h-293v303l-58 -30l14 61l44 23v329l62 16v-314z" />
    <glyph glyph-name="lslash" unicode="&#x142;" horiz-adv-x="222" 
d="M204 474v-56l-64 -46v-372l-58 -12v346l-64 -42v56l64 42v322l58 12v-296z" />
    <glyph glyph-name="OE" unicode="&#x152;" horiz-adv-x="1000" 
d="M624 553v133h331l10 -62h-279v-245h240v-62h-240v-255h305l-13 -62h-352v133h-4q-51 -69 -119 -109t-146 -40q-99 0 -177.5 53.5t-118.5 135t-40 170.5t40 170.5t118.5 135t177.5 53.5q78 0 146 -40t119 -109h2zM357 640q-113 0 -190.5 -92t-77.5 -205t77.5 -205
t190.5 -92t190.5 92t77.5 205t-77.5 205t-190.5 92z" />
    <glyph glyph-name="oe" unicode="&#x153;" horiz-adv-x="1000" 
d="M89 251q0 -90 58.5 -147.5t148.5 -57.5q87 0 145 58t58 144q0 91 -57.5 149.5t-148.5 58.5q-84 0 -144 -60t-60 -145zM560 218l322 190q-51 48 -128 48q-87 0 -142 -60t-55 -147q0 -1 3 -31zM969 391l-389 -227q17 -59 65.5 -88.5t112.5 -29.5q97 0 197 85v-74
q-87 -69 -204 -69q-73 0 -131.5 37t-94.5 102q-81 -139 -233 -139q-114 0 -187.5 77t-73.5 191q0 108 77.5 183t184.5 75q74 0 133.5 -35t97.5 -100q48 66 99.5 100.5t124.5 34.5q154 0 221 -123z" />
    <glyph glyph-name="Scaron" unicode="&#x160;" 
d="M34 104l48 38q32 -50 72 -73t98 -23q65 0 105.5 36t40.5 100q0 53 -36.5 84t-88 46t-103 32.5t-88 57.5t-36.5 106q0 90 61.5 142t153.5 52q51 0 99 -22t82 -60l-38 -46q-37 33 -69.5 49.5t-73.5 16.5q-64 0 -105.5 -33t-41.5 -95q0 -34 19.5 -58.5t50.5 -38.5
t68.5 -25.5t75 -26t68.5 -34.5t50.5 -56t19.5 -85q0 -92 -61 -148t-154 -56q-147 0 -217 120zM262 763l82 102h65l-113 -139h-67l-113 139h64z" />
    <glyph glyph-name="scaron" unicode="&#x161;" horiz-adv-x="389" 
d="M17 64l44 37q58 -55 126 -55q47 0 77.5 24t30.5 69q0 29 -19.5 48.5t-49 28t-64 19.5t-64 23.5t-49 40.5t-19.5 69q0 66 49 106t117 40q42 0 75 -14.5t75 -44.5l-33 -46q-63 47 -120 47q-45 0 -75 -22t-30 -63q0 -34 27.5 -53.5t66 -29t77.5 -21.5t66.5 -43t27.5 -82
q0 -75 -50.5 -114.5t-128.5 -39.5q-93 0 -157 76zM195 603l82 102h65l-113 -139h-67l-113 139h64z" />
    <glyph glyph-name="Ydieresis" unicode="&#x178;" 
d="M39 702l228 -377l197 377l68 -16l-369 -694l-71 16l139 251l-256 427zM131 785l43 53l45 -53l-45 -52zM305 785l43 53l45 -53l-45 -52z" />
    <glyph glyph-name="Zcaron" unicode="&#x17d;" horiz-adv-x="556" 
d="M32 624l14 62h481l-399 -624h414l-13 -62h-516l400 624h-381zM290 763l82 102h65l-113 -139h-67l-113 139h64z" />
    <glyph glyph-name="zcaron" unicode="&#x17e;" 
d="M6 0l357 444h-313l13 58h416l-359 -444h357l-15 -58h-456zM250 603l82 102h65l-113 -139h-67l-113 139h64z" />
    <glyph glyph-name="florin" unicode="&#x192;" 
d="M9 -156l10 56q42 -32 72 -32q31 0 51.5 36t35.5 118l67 362h-104v58h115l21 107q19 97 48.5 135.5t91.5 38.5q43 0 74 -10l-8 -60q-43 18 -58 18q-38 0 -57 -26.5t-34 -104.5l-20 -98h119v-58h-127l-85 -438q-10 -54 -42 -92t-83 -38q-43 0 -87 28z" />
    <glyph glyph-name="circumflex" unicode="&#x2c6;" horiz-adv-x="222" 
d="M78 705h67l113 -139h-65l-82 102l-82 -102h-64z" />
    <glyph glyph-name="caron" unicode="&#x2c7;" horiz-adv-x="222" 
d="M111 603l82 102h65l-113 -139h-67l-113 139h64z" />
    <glyph glyph-name="uni02C9" unicode="&#x2c9;" horiz-adv-x="222" 
d="M-36 601v48h294v-48h-294z" />
    <glyph glyph-name="breve" unicode="&#x2d8;" horiz-adv-x="222" 
d="M-31 702h38q13 -81 109 -81q40 0 66.5 21.5t35.5 59.5h38q-16 -129 -142 -129q-65 0 -104 36t-41 93z" />
    <glyph glyph-name="dotaccent" unicode="&#x2d9;" horiz-adv-x="222" 
d="M67 625l43 53l45 -53l-45 -52z" />
    <glyph glyph-name="ring" unicode="&#x2da;" horiz-adv-x="222" 
d="M111 565q-41 0 -70.5 29t-29.5 70t29.5 70.5t70.5 29.5t70.5 -29.5t29.5 -70.5t-29.5 -70t-70.5 -29zM111 730q-28 0 -47 -19.5t-19 -46.5q0 -28 19 -46.5t47 -18.5q27 0 46.5 19t19.5 46t-19.5 46.5t-46.5 19.5z" />
    <glyph glyph-name="ogonek" unicode="&#x2db;" horiz-adv-x="222" 
d="M218 -123l14 -30q-50 -56 -142 -56q-40 0 -65 19t-25 53q0 27 9.5 49t29 37.5t37 26.5t47 20.5t44 13.5t42.5 10v-9q-55 -21 -103 -57t-48 -72q0 -23 17 -35t40 -12q46 0 103 42z" />
    <glyph glyph-name="tilde" unicode="&#x2dc;" horiz-adv-x="222" 
d="M-7 578h-37q2 37 27 67t61 30q23 0 73 -22q46 -23 69 -23q36 0 44 49h39q-17 -97 -88 -97q-23 0 -71 23q-50 22 -69 22q-39 0 -48 -49z" />
    <glyph glyph-name="hungarumlaut" unicode="&#x2dd;" horiz-adv-x="222" 
d="M38 566h-55l80 139h76zM164 566h-54l80 139h76z" />
    <glyph glyph-name="uni03A9" unicode="&#x3a9;" horiz-adv-x="648" 
d="M184 51v3q-55 54 -90 136t-35 181q0 149 76.5 240.5t191.5 91.5q116 0 188.5 -94.5t72.5 -233.5q0 -103 -36.5 -187.5t-89.5 -133.5v-3h138v-51h-211v37q59 45 99.5 131.5t40.5 195.5q-1 69 -22 132.5t-69 109t-112 45.5q-93 0 -150 -82t-57 -206q0 -103 41.5 -193
t97.5 -133v-37h-211v51h137z" />
    <glyph glyph-name="uni03BC" unicode="&#x3bc;" 
d="M54 502l58 12v-343q0 -131 122 -131q81 0 117.5 49t36.5 187v226l58 12v-514l-58 -8v83h-2q-16 -36 -59 -61.5t-98 -25.5q-77 0 -117 35v-195l-58 -12v686z" />
    <glyph glyph-name="pi" unicode="&#x3c0;" horiz-adv-x="511" 
d="M485 461h-74v-319q0 -96 13 -142h-57q-15 32 -15 136v325h-170q-5 -113 -25 -254t-44 -207h-58q26 75 45 212t23 249q-71 0 -102 -12l-10 40q39 25 126 25h354z" />
    <glyph glyph-name="endash" unicode="&#x2013;" 
d="M0 229v44h500v-44h-500z" />
    <glyph glyph-name="emdash" unicode="&#x2014;" horiz-adv-x="1000" 
d="M0 229v44h1000v-44h-1000z" />
    <glyph glyph-name="quoteleft" unicode="&#x2018;" horiz-adv-x="222" 
d="M141 544l-43 -55q-54 35 -54 72q0 22 13 45.5t39 56.5t30 39l34 -19q-4 -6 -19.5 -28t-25.5 -40t-10 -31q0 -11 12 -24t24 -16z" />
    <glyph glyph-name="quoteright" unicode="&#x2019;" horiz-adv-x="222" 
d="M96 489l-34 20q3 4 14 19.5t19 27.5t15 26.5t7 22.5q0 24 -36 43l43 54q54 -35 54 -72q0 -22 -13.5 -46.5t-38 -55.5t-30.5 -39z" />
    <glyph glyph-name="quotesinglbase" unicode="&#x201a;" horiz-adv-x="222" 
d="M81 -139l-30 23q3 4 22 26t31.5 40.5t12.5 27.5q0 7 -1.5 12t-5.5 10l-6 7.5t-9 8t-9 7.5l41 40q2 -3 9 -9.5t10 -10t8.5 -9.5t8 -10.5t5.5 -11t4.5 -12.5t1.5 -13t-3.5 -16.5t-11 -20t-14.5 -20t-18 -21t-17.5 -18.5t-16.5 -17.5t-12 -12.5z" />
    <glyph glyph-name="quotedblleft" unicode="&#x201c;" horiz-adv-x="333" 
d="M116 702l30 -23q-4 -6 -22.5 -28t-31 -40.5t-12.5 -29.5q0 -10 10.5 -23t21.5 -19l-41 -39q-48 36 -48 72q0 12 6.5 26t19 30t22.5 27t26 27t19 20zM253 702l30 -23q-4 -6 -22.5 -28t-31 -40.5t-12.5 -29.5q0 -10 10.5 -23t21.5 -19l-41 -39q-48 36 -48 72q0 12 6.5 26
t19 30t22.5 27t26 27t19 20z" />
    <glyph glyph-name="quotedblright" unicode="&#x201d;" horiz-adv-x="333" 
d="M217 500l-30 23q4 6 22.5 28t31 40.5t12.5 29.5q0 10 -10.5 23t-21.5 19l41 39q48 -36 48 -72q0 -12 -6.5 -26t-19 -30t-22.5 -27t-26 -27t-19 -20zM80 500l-30 23q4 6 22.5 28t31 40.5t12.5 29.5q0 10 -10.5 23t-21.5 19l41 39q48 -36 48 -72q0 -12 -6.5 -26t-19 -30
t-22.5 -27t-26 -27t-19 -20z" />
    <glyph glyph-name="quotedblbase" unicode="&#x201e;" horiz-adv-x="333" 
d="M217 -139l-30 23l21 25q21 25 33 43t12 26q0 10 -6 19t-10 13t-16 13l41 40l11 -11l11.5 -11.5t9.5 -11.5t8.5 -13.5t5 -13t2.5 -15.5q0 -10 -7 -23.5t-20 -29.5t-23 -27.5t-25 -27t-18 -18.5zM80 -139l-30 23q3 4 22 26t31.5 40.5t12.5 27.5q0 7 -1.5 12t-5.5 10l-6 7.5
t-9 8t-9 7.5l41 40q2 -3 9 -9.5t10 -10t8.5 -9.5t8 -10.5t5.5 -11t4.5 -12.5t1.5 -13t-3.5 -16.5t-11 -20t-14.5 -20t-18 -21t-17.5 -18.5t-16.5 -17.5t-12 -12.5z" />
    <glyph glyph-name="dagger" unicode="&#x2020;" 
d="M239 450l-173 -21v72l173 -21l-25 206h74l-25 -206l171 21v-72l-172 21l26 -185l-24 -364v-85h-27v85l-24 364z" />
    <glyph glyph-name="daggerdbl" unicode="&#x2021;" 
d="M62 87l171 -23l-18 200l18 193l-171 -21v74l171 -23l-18 199h77l-24 -199l169 23v-74l-169 21l21 -193l-21 -200l167 23v-74l-167 22l20 -219h-80l25 219l-171 -22v74z" />
    <glyph glyph-name="bullet" unicode="&#x2022;" 
d="M421 343q0 -71 -50 -121.5t-121 -50.5q-72 0 -122 50t-50 122q-1 71 49.5 121t122.5 50q71 0 121 -50t50 -121z" />
    <glyph glyph-name="ellipsis" unicode="&#x2026;" horiz-adv-x="1000" 
d="M115 53l52 59l52 -59l-52 -59zM448 53l52 59l52 -59l-52 -59zM781 53l52 59l52 -59l-52 -59z" />
    <glyph glyph-name="perthousand" unicode="&#x2030;" horiz-adv-x="1000" 
d="M323 158q0 66 46.5 113t112.5 47t113 -47t47 -113t-47 -112t-113 -46q-67 0 -113 45.5t-46 112.5zM371 158q0 -46 32 -78t79 -32t79.5 32t32.5 78t-33 79t-79 33t-78.5 -32.5t-32.5 -79.5zM679 158q0 66 46.5 113t113.5 47q66 0 112.5 -47t46.5 -113t-46.5 -112
t-112.5 -46q-67 0 -113.5 45.5t-46.5 112.5zM727 158q0 -46 32.5 -78t79.5 -32q46 0 78.5 32t32.5 78t-32.5 79t-78.5 33q-47 0 -79.5 -32.5t-32.5 -79.5zM488 686h51l-399 -702h-49l344 593l-2 2q-24 -21 -63 -21q-35 0 -52 14l-2 -2q7 -17 7 -43q0 -67 -47 -113.5
t-113 -46.5q-67 0 -113 46.5t-46 113.5q0 66 46 112.5t113 46.5q57 0 100 -35q5 -3 23 -17t27.5 -20.5t26.5 -13t32 -6.5q56 0 116 92zM52 527q0 -47 32 -79.5t79 -32.5q46 0 79 33t33 79t-33 78.5t-79 32.5q-47 0 -79 -32t-32 -79z" />
    <glyph glyph-name="guilsinglleft" unicode="&#x2039;" horiz-adv-x="278" 
d="M52 251l140 139l34 -32l-110 -107l110 -107l-34 -32z" />
    <glyph glyph-name="guilsinglright" unicode="&#x203a;" horiz-adv-x="278" 
d="M226 251l-140 -139l-34 32l110 107l-110 107l34 32z" />
    <glyph glyph-name="fraction" unicode="&#x2044;" horiz-adv-x="167" 
d="M-167 -16l446 718h55l-445 -718h-56z" />
    <glyph glyph-name="Euro" unicode="&#x20ac;" 
d="M478 84l-9 -74q-38 -26 -96 -26q-98 0 -168 76t-89 202h-90l10 53h75q0 5 -0.5 14t-0.5 14q0 16 2 44h-86l10 53h83q23 117 92.5 189.5t161.5 72.5q61 0 90 -25l10 -73q-42 40 -104 40q-70 0 -119 -60.5t-65 -143.5h207l-10 -53h-206q-2 -15 -2 -44q0 -5 0.5 -14t0.5 -14
h193l-10 -53h-178q15 -99 66 -159.5t125 -60.5q61 0 107 42z" />
    <glyph glyph-name="afii61289" unicode="&#x2113;" horiz-adv-x="437" 
d="M384 128l30 -24q-58 -115 -164 -115q-75 0 -110.5 53t-37.5 138v14q-15 -13 -54 -47l-19 36q63 58 72 68v276q0 123 39.5 177.5t96.5 54.5q53 0 81 -42.5t28 -111.5q0 -167 -189 -366v-33q1 -88 29.5 -128.5t74.5 -40.5q40 0 72 27t51 64zM157 532v-230q147 172 147 301
q0 109 -68 109q-32 0 -55.5 -44t-23.5 -136z" />
    <glyph glyph-name="trademark" unicode="&#x2122;" horiz-adv-x="990" 
d="M402 686v-54h-132v-358h-58v358h-132v54h322zM526 632v-358h-58v412h95l128 -323l124 323h95v-412h-58v357h-2l-143 -357h-36l-143 358h-2z" />
    <glyph glyph-name="Omega" unicode="&#x2126;" horiz-adv-x="648" 
d="M184 51v3q-55 54 -90 136t-35 181q0 149 76.5 240.5t191.5 91.5q116 0 188.5 -94.5t72.5 -233.5q0 -103 -36.5 -187.5t-89.5 -133.5v-3h138v-51h-211v37q59 45 99.5 131.5t40.5 195.5q-1 69 -22 132.5t-69 109t-112 45.5q-93 0 -150 -82t-57 -206q0 -103 41.5 -193
t97.5 -133v-37h-211v51h137z" />
    <glyph glyph-name="estimated" unicode="&#x212e;" horiz-adv-x="866" 
d="M831 333h-646q-5 0 -5 -4v-196q0 -13 9 -22q101 -106 244 -106q154 0 257 119h57q-54 -64 -137.5 -101.5t-177.5 -37.5q-165 0 -282 105t-117 253t117 253.5t282 105.5q166 0 282.5 -105t116.5 -254v-10zM685 358v197q0 13 -10 23q-104 102 -242 102q-141 0 -243 -105
q-10 -9 -10 -24v-193q0 -6 5 -6h495q5 0 5 6z" />
    <glyph glyph-name="partialdiff" unicode="&#x2202;" horiz-adv-x="492" 
d="M93 674l-22 44q63 53 148 53q94 0 160 -94.5t66 -277.5q0 -186 -60.5 -298t-172.5 -112q-82 0 -126.5 64.5t-44.5 160.5q0 112 57.5 182.5t136.5 70.5q55 0 94.5 -29.5t55.5 -60.5h1q1 11 1 42q0 134 -50.5 218t-123.5 84q-64 0 -120 -47zM216 39h1q65 0 109 78t53 192
q-13 41 -49.5 74.5t-86.5 33.5q-59 0 -101.5 -59t-42.5 -143q0 -79 32 -127.5t85 -48.5z" />
    <glyph glyph-name="Delta" unicode="&#x2206;" horiz-adv-x="583" 
d="M30 0v43l230 668h66l227 -667v-44h-523zM89 50h401l-137 400q-7 23 -30.5 90t-30.5 93h-4q-5 -23 -27 -87t-27 -82z" />
    <glyph glyph-name="product" unicode="&#x220f;" horiz-adv-x="629" 
d="M603 637h-98v-733h-58v733h-266v-733h-57v733h-99v55h578v-55z" />
    <glyph glyph-name="summation" unicode="&#x2211;" horiz-adv-x="502" 
d="M481 -96h-459v42l250 351l-239 353v42h433v-52h-352v-4l225 -330l-243 -341v-3h385v-58z" />
    <glyph glyph-name="minus" unicode="&#x2212;" horiz-adv-x="600" 
d="M551 222h-502v58h502v-58z" />
    <glyph glyph-name="uni2215" unicode="&#x2215;" horiz-adv-x="167" 
d="M-167 -16l446 718h55l-445 -718h-56z" />
    <glyph glyph-name="uni2219" unicode="&#x2219;" horiz-adv-x="250" 
d="M124 201q-21 0 -35 14.5t-14 35.5q0 20 14.5 35t34.5 15t35.5 -15t15.5 -35q0 -21 -15 -35.5t-36 -14.5z" />
    <glyph glyph-name="radical" unicode="&#x221a;" horiz-adv-x="522" 
d="M517 821l-202 -972h-53l-149 467l-68 -25l-13 38l119 46l120 -374q12 -48 16 -72h1q1 8 5.5 32.5t6.5 37.5l172 822h45z" />
    <glyph glyph-name="infinity" unicode="&#x221e;" horiz-adv-x="724" 
d="M676 289v-1q0 -65 -41.5 -105.5t-99.5 -40.5q-43 0 -81 26t-91 86q-31 -36 -52 -56t-55.5 -38t-70.5 -18q-57 0 -97.5 41.5t-40.5 101.5q0 62 41 103.5t104 41.5q48 0 87.5 -29.5t86.5 -83.5q23 25 31 34t29 29t35.5 27.5t36 15t44.5 7.5q60 0 97 -39t37 -102zM191 182h1
q15 0 30.5 5.5t26 11t26.5 19.5t22 20t23.5 24.5t19.5 20.5q-29 36 -45 53.5t-47 36.5t-63 19q-44 0 -69.5 -31.5t-25.5 -76.5q1 -44 29 -73t72 -29zM538 392h-2q-22 0 -46.5 -13.5t-37.5 -25t-37 -37.5t-27 -29q55 -59 85 -82t66 -23q43 0 69 31t26 72q0 50 -27 78.5
t-69 28.5z" />
    <glyph glyph-name="integral" unicode="&#x222b;" horiz-adv-x="326" 
d="M309 830l-11 -43q-13 10 -33 10q-30 0 -47 -23q-32 -40 -32 -180q0 -76 5.5 -250.5t5.5 -253.5q0 -138 -41 -201q-28 -45 -86 -45q-36 0 -57 15l12 44q29 -11 41 -11q27 0 43 25q33 42 33 174q0 80 -6 256.5t-6 252.5q0 82 11 129.5t37 76.5q33 37 83 37q29 0 48 -13z
" />
    <glyph glyph-name="approxequal" unicode="&#x2248;" horiz-adv-x="517" 
d="M447 415l27 -22q-43 -89 -118 -89q-25 0 -46 8.5t-61 31.5q-56 32 -87 32q-50 0 -92 -71l-28 21q45 90 126 90q16 0 33 -5t25 -9t26.5 -15t19.5 -11q4 -2 15 -8t15 -8t13 -6t14.5 -5.5t14 -3t16.5 -1.5q49 0 87 71zM447 259l27 -21q-44 -89 -117 -89q-26 0 -47 8.5
t-61 31.5q-56 32 -87 32q-50 0 -92 -71l-28 21q45 90 125 90q16 0 33 -5t26.5 -9.5t25.5 -13.5t20 -11q50 -29 74 -32q7 -1 14 -1q27 0 47 17t40 53z" />
    <glyph glyph-name="notequal" unicode="&#x2260;" horiz-adv-x="517" 
d="M365 484l-42 -93h146v-41h-163l-63 -138h226v-40h-242l-50 -110l-33 15l43 95h-139v40h156l63 138h-219v41h235l49 108z" />
    <glyph glyph-name="lessequal" unicode="&#x2264;" horiz-adv-x="517" 
d="M467 102l-414 214v42l413 214v-51l-368 -182v-2l369 -185v-50zM469 20h-421v42h421v-42z" />
    <glyph glyph-name="greaterequal" unicode="&#x2265;" horiz-adv-x="517" 
d="M54 572l413 -214v-42l-413 -214v50l368 183v3l-368 183v51zM469 20h-421v42h421v-42z" />
    <glyph glyph-name="lozenge" unicode="&#x25ca;" horiz-adv-x="523" 
d="M470 346l-186 -386h-49l-183 386l185 386h49zM415 344l-136 282q-8 19 -18 52h-2q-9 -32 -18 -52l-135 -279l137 -284q12 -26 16 -50h4q8 31 16 49z" />
    </font>
</defs>
</svg>
