<?xml version="1.0" encoding="utf-8"?>
<!-- Generator: Adobe Illustrator 24.1.0, SVG Export Plug-In . SVG Version: 6.00 Build 0)  -->
<svg version="1.1" id="Layer_1" xmlns="http://www.w3.org/2000/svg" xmlns:xlink="http://www.w3.org/1999/xlink" x="0px" y="0px"
	 viewBox="0 0 94.1 90.5" style="enable-background:new 0 0 94.1 90.5;" xml:space="preserve">
<path id="Layer_2_1_" d="M70.5,15.3V2c0-1.1-0.9-2-2-2s-2,0.9-2,2v13.3H28V2c0-1.1-0.9-2-2-2s-2,0.9-2,2v13.3H0v75.2h94.1V15.3H70.5
	z M90.1,19.3v8.4H4v-8.4H90.1z M4,86.5V31.7h86.1v54.8H4z M33,41.4H18c-1.1,0-2,0.9-2,2s0.9,2,2,2h15c1.1,0,2-0.9,2-2
	S34.1,41.4,33,41.4z M54.6,41.4h-15c-1.1,0-2,0.9-2,2s0.9,2,2,2h15c1.1,0,2-0.9,2-2S55.7,41.4,54.6,41.4z M76.1,41.4h-15
	c-1.1,0-2,0.9-2,2s0.9,2,2,2h15c1.1,0,2-0.9,2-2S77.2,41.4,76.1,41.4z M33,54.6H18c-1.1,0-2,0.9-2,2s0.9,2,2,2h15c1.1,0,2-0.9,2-2
	S34.1,54.6,33,54.6z M54.6,54.6h-15c-1.1,0-2,0.9-2,2s0.9,2,2,2h15c1.1,0,2-0.9,2-2S55.7,54.6,54.6,54.6z M76.1,54.6h-15
	c-1.1,0-2,0.9-2,2s0.9,2,2,2h15c1.1,0,2-0.9,2-2S77.2,54.6,76.1,54.6z M33,67.7H18c-1.1,0-2,0.9-2,2s0.9,2,2,2h15c1.1,0,2-0.9,2-2
	S34.1,67.7,33,67.7z M54.6,67.7h-15c-1.1,0-2,0.9-2,2s0.9,2,2,2h15c1.1,0,2-0.9,2-2S55.7,67.7,54.6,67.7z M76.1,67.7h-15
	c-1.1,0-2,0.9-2,2s0.9,2,2,2h15c1.1,0,2-0.9,2-2S77.2,67.7,76.1,67.7z"/>
</svg>
